<?xml version="1.0"?>
<svg width="827.59" height="699.48" xmlns="http://www.w3.org/2000/svg" xmlns:svg="http://www.w3.org/2000/svg">
 <g class="layer">
  <title>Layer 1</title>
  <g fill="#3f3f3f" id="svg_1" transform="matrix(1 0 0 1 0 0)">
   <path d="m402.56,416.1c-3.15,-0.86 -6.31,0.1 -9.46,0.63c-6.15,1.24 -12.13,3.08 -18.18,4.7c-6.43,1.8 -11.98,5.34 -17.6,8.83c-4.34,3.18 -7.54,7.16 -10.52,11.52c-3.45,5.67 -5.35,12.08 -7.09,18.43c-2.36,7.95 -3.5,16.19 -4.85,24.36c-1.16,8.4 -2.6,16.75 -3.96,25.12c-0.84,7.25 -2.39,14.37 -4.25,21.42c-1.56,5.5 -3.42,10.92 -4.99,16.44c-1.38,2.94 -2.63,5.97 -3.93,8.87c-0.57,1.81 -1.48,3.5 -2.21,5.17c1.81,-4.44 -0.65,-6.12 -5.25,-7.47c-0.23,0.57 2.39,-1.19 3.1,-1.55c3.79,-3.45 7.53,-6.95 10.96,-10.75c4.9,-5.52 10.55,-10.31 16.26,-14.94c5.27,-4.25 10.88,-8.1 16.39,-12c6.19,-4.09 12.32,-8.28 18.01,-13.06c7.49,-6.56 13.53,-14.29 19.49,-22.19c5,-7.73 8.79,-16.06 12.18,-24.6c2.93,-7.06 5.5,-14.26 8.05,-21.47c3.21,-3.17 2.52,-6.49 3.34,-9.91c0.47,-1.95 2.04,-2.32 2.8,-0.46c1.6,3.84 2.82,7.9 4.48,11.87c0.27,9.1 -2.37,17.43 -6.43,25.54c-4.53,8.84 -8.92,17.86 -14.76,25.93c-5.99,8.82 -13.07,16.93 -20.52,24.54c-5.72,5.86 -11.38,11.82 -18.41,16.14c-5.43,3.39 -10.94,6.7 -16.11,10.51c-5.29,4.37 -10.39,8.86 -15.1,13.86c-4.61,3.95 -8.95,8.33 -14.6,10.9c-2.53,1.43 -5.06,3.14 -7.94,3.7c-6.43,-1.61 -7.84,-4.12 -5.73,-9.79c0.78,-1.33 1.63,-2.85 2.48,-4.24c1.11,-2.83 2.46,-5.69 3.36,-8.66c2.51,-4.8 4.59,-9.72 6.24,-14.88c1.92,-6.76 3.83,-13.51 5.2,-20.4c1.66,-8.26 3.03,-16.57 4.42,-24.89c1.43,-8.4 3.2,-16.72 4.84,-25.07c2.03,-7.08 3.82,-14.22 7.23,-20.8c3.44,-5.65 6.76,-11.23 12.66,-14.66c6.06,-4.12 12.34,-7.71 18.91,-10.98c6.03,-3.03 12.17,-5.75 18.62,-7.82c3.99,-1.34 8.03,-2.55 12.07,-3.73c10.76,-3.14 11.62,18.81 0.8,15.84z" fill="#e0d3df" id="svg_2" stroke="#e0d3df"/>
   <path d="m422.62,408.38c2.55,0.1 5.09,1.04 7.56,1.81c4.7,1.22 9.42,2.19 14.22,2.95c5.78,1.55 11.79,1.81 17.72,2.03c5.33,0.17 10.52,-0.39 15.74,-1.29c6.15,-1.06 11.7,-3.89 17.3,-6.51c5.31,-2.8 9.92,-6.41 14.38,-10.35c2.54,-2.08 3.88,-5.03 5.43,-7.62c1.08,-1.1 0.48,-2.53 0.69,-3.69c-0.02,-0.5 -0.2,-0.82 -0.31,-1.31c-0.19,-0.36 0.27,0.77 0.41,1.16c0.52,0.31 1.17,0.32 1.75,0.49c-3.68,-0.17 -7.42,0.88 -11.02,1.66c-6.48,1.79 -13.04,3.3 -19.54,5.03c-6.37,1.51 -12.73,3 -19.13,4.38c-6.61,2.43 -13.12,3.24 -19.7,2.76c-6.94,1.63 -14.02,2.48 -21.09,3.32c-1.99,0.23 -2.31,-2.59 -0.32,-2.82c6.96,-0.83 13.93,-1.66 20.77,-3.27c5.56,-3.31 11.81,-5.7 18.66,-6.82c6.35,-1.61 12.78,-2.84 19.2,-4.21c6.43,-1.49 12.71,-3.31 18.82,-5.8c4.02,-1.54 8.06,-3.02 12.12,-4.39c3.19,-0.46 5.21,-1.17 7.98,1.14c0.82,1.51 2.44,2.79 2.37,4.66c0.14,1.61 0.67,3.18 0.43,4.87c-0.6,2.64 -1.13,5.3 -2.3,7.77c-2.79,3.65 -5.27,7.46 -9.4,9.8c-5.31,3.74 -10.76,7.34 -16.68,10.05c-6.16,3.32 -12.37,6.66 -19.15,8.52c-5.93,0.76 -11.82,1.13 -17.79,0.35c-6.26,-0.48 -12.56,-1.01 -18.83,-1.71c-4.85,-1.09 -9.69,-2.13 -14.58,-2.98c-2.98,-0.64 -6.02,-0.99 -8.53,-2.85c-4.36,-3.22 -2.6,-7.35 2.82,-7.13z" fill="#e0d3df" id="svg_3" stroke="#e0d3df"/>
   <path d="m538.61,378.25c5.83,0.66 10.79,-0.87 16.74,-0.71c10.04,1.18 20.06,2.41 30.07,3.78c11.82,2.48 22.91,7.27 34.31,11.09c10.15,4.49 20.5,8.47 30.53,13.2c6.58,2.33 12.49,6.02 18.68,9.16c3.75,1.17 6.61,3.75 9.56,6.21c4.04,3.83 5.22,7.24 4.55,12.93c-3.21,6.37 -6.17,5.46 -12.61,3.4c-1.91,-0.62 -1.2,-0.32 -1.72,-2.26c-0.32,-1.16 -2.03,-10.22 -3.98,-5.39c0.08,0.72 1.2,7.78 0.67,4.17c-1.82,-1.83 -3.52,-3.88 -5.45,-5.64c-4.9,-4.19 -10.07,-7.99 -15.24,-11.85c-9.38,-5.31 -18.84,-10.44 -28.97,-14.25c-10.28,-5.09 -21.13,-8.92 -32.26,-11.68c-9.36,-2.79 -18.73,-3.92 -28.53,-3.38c-5.66,-0.21 -10.43,-2.19 -15.92,-0.9c-5.44,1.28 -5.98,-8.5 -0.43,-7.88z" fill="#e0d3df" id="svg_4" stroke="#e0d3df"/>
  </g>
  <g fill="#ff007f" id="svg_5">
   <path d="m426.8,382.59c1.3,-2.28 3.21,-4.18 4.67,-6.44c1.74,-2.43 2.83,-5.18 3.94,-7.92c0.87,-2.63 1.46,-5.32 2.14,-8c0.63,-2.82 0.33,-5.64 0.04,-8.47c-0.76,-3.85 -2.26,-7.48 -3.56,-11.17c-2.22,-4.69 -4.12,-9.49 -6.74,-13.99c-2.39,-5.03 -6.09,-9.27 -9.63,-13.53c-3.69,-4.44 -8.43,-7.77 -12.63,-11.66c-3.91,-3.34 -7.92,-6.54 -12.09,-9.54c-2.67,-2.04 -5.6,-3.68 -8.4,-5.51c-1.58,-0.71 -2.93,-1.73 -4.42,-2.6c-0.75,-0.18 -1.48,-0.33 -2.22,-0.5c-0.41,-1.97 -0.94,-1.08 -2.37,-1.46c-1.39,0.93 -2.43,2.23 -3.39,3.58c-1.41,2.44 -2.46,5.06 -3.49,7.67c-1.33,3.26 -1.77,6.77 -2.19,10.25c-0.3,4.18 -0.46,8.42 -0.34,12.62c0.26,5.22 1.1,10.42 2.1,15.55c1.28,5.55 3.09,10.94 4.79,16.36c2.19,5.28 4.4,10.51 7.09,15.57c2.85,4.54 5.25,9.34 8.53,13.61c3.54,4.65 7.65,9.03 12.21,12.69c3.26,2.43 5.58,5.6 9.11,7.63c0.87,0.5 0.17,1.73 -0.7,1.23c-3.6,-2.07 -7.76,-3.01 -10.84,-5.95c-4.71,-4.1 -9.6,-7.96 -13.45,-12.94c-3.16,-4.6 -6.25,-9.3 -8.42,-14.46c-2.57,-5.27 -5.19,-10.6 -6.9,-16.22c-2.06,-5.46 -3.42,-11.15 -4.44,-16.89c-1.2,-5.32 -2.3,-10.62 -2.5,-16.09c-0.11,-4.4 -0.18,-8.74 0.52,-13.11c0.58,-3.71 1.11,-7.39 2.24,-10.99c1,-2.84 2,-5.69 3.5,-8.32c1.03,-2.13 1.8,-4.26 3.76,-5.8c1.71,-1.65 3.39,-3.25 5.36,-4.56c2.12,0.04 4.14,0 6.07,1.05c2.28,0.85 4.38,1.82 6.18,3.51c2.95,2.11 5.69,4.45 8.44,6.81c3.96,3.51 7.88,7.06 11.73,10.7c4.58,3.96 8.67,8.49 12.81,12.91c4.04,4.54 7.55,9.45 10.95,14.47c2.62,4.79 5.36,9.57 7.3,14.68c2.07,4.09 3.86,8.33 4.91,12.79c0.7,3.98 1.15,7.88 0.21,11.89c-0.65,3.48 -1.43,6.85 -3.2,9.96c-1.71,3.02 -3.55,5.99 -5.81,8.67c-1.74,2.04 -3.15,4.49 -5.1,6.22c-3.81,3.37 -8.29,0.12 -5.77,-4.3z" fill="#e0d3df" id="svg_6"/>
   <path d="m475.85,381.57c2.12,-0.11 4.18,-0.87 6.24,-1.6c5.61,-2.52 9.63,-7.35 13.44,-12.01c5.79,-7.93 9.78,-16.89 13.4,-25.96c3.61,-9.31 6.36,-18.91 8.92,-28.55c2.03,-7.87 3.45,-15.86 4.71,-23.87c0.99,-6.3 1.46,-12.67 1.29,-19.04c0.01,-4.77 -0.79,-9.44 -1.58,-14.12c-0.76,-3.57 -1.84,-7.07 -2.96,-10.53c-0.43,-2.09 -1.59,-3.71 -2.81,-5.38c-0.37,-0.61 -0.95,-1.05 -1.42,-1.58c2.06,-1.39 -2.62,0.46 -3.22,0.75c-4.35,3.03 -7.78,7.04 -10.98,11.24c-4.87,6.91 -8.48,14.54 -12.15,22.13c-4.7,9.57 -8.82,19.41 -12.6,29.38c-4.01,10.85 -7.39,21.91 -10.28,33.11c-2.6,10.64 -4.61,21.44 -5.67,32.35c-0.9,4.46 -0.67,8.96 -0.44,13.46c0.05,1 -1.37,1.07 -1.42,0.07c-0.23,-4.58 -0.33,-9.16 -0.36,-13.75c1.09,-11.04 2.99,-21.95 6.33,-32.56c3.29,-11.13 6.38,-22.32 10.52,-33.18c3.79,-10.02 7.7,-20 12.6,-29.54c3.79,-7.61 7.43,-15.3 11.27,-22.88c2.7,-5.04 5.69,-9.91 9.74,-14c2.9,-3.22 5.68,-6.57 10.46,-5.78c2.58,1.31 4.59,2.69 6.26,5.17c1.36,2.71 2.54,5.46 3.26,8.43c0.82,3.89 1.61,7.8 2.2,11.74c0.7,5.15 1.13,10.35 0.88,15.56c-0.3,6.78 -0.86,13.54 -2.28,20.19c-1.77,8.1 -4.12,16.05 -6.52,23.97c-2.84,9.74 -5.81,19.42 -9.46,28.9c-3.67,9.47 -7.62,18.89 -12.74,27.69c-3.72,6.33 -7.9,12.19 -14.02,16.43c-2.66,1.71 -5.48,3.69 -8.55,4.24c-7.44,1.34 -9.61,-10.11 -2.06,-10.48z" fill="#e0d3df" id="svg_7"/>
  </g>
  <path d="m507.27,376.6c2.71,-1.18 5.24,-3.07 7.64,-4.84c5.7,-4.57 10.77,-9.85 15.74,-15.18c5.26,-5.94 9.97,-12.32 14.36,-18.91c3.93,-6.26 7.83,-12.51 11.49,-18.93c3.38,-5.68 6.64,-11.36 8.7,-17.7c0.3,-1 0.59,-2 0.88,-3c0.28,-0.96 1.64,-0.57 1.36,0.4c-0.29,1.01 -0.59,2.02 -0.89,3.04c-2.08,6.39 -3.83,12.99 -6.87,18.98c-3.41,6.68 -7.18,13.25 -11.62,19.29c-4.63,6.62 -9.11,13.37 -14.43,19.47c-4.79,5.68 -9.99,10.99 -14.81,16.64c-2.3,2.77 -4.47,5.66 -7.1,8.12c-4.45,4.17 -10.03,-4.94 -4.45,-7.38z" fill="#e0d3df" id="svg_8"/>
  <g fill="#ff007f" id="svg_9" transform="matrix(1 0 0 1 0 0)">
   <path d="m572.09,249.84c-0.32,-1.33 0.39,-3.32 0.78,-4.86c0.59,-2.52 0.63,-5.07 0.49,-7.63c0.17,-2.1 -0.2,-4.18 -0.44,-6.26c0.1,-0.69 -0.55,-1.93 -0.62,-2.2c1.83,1.14 0.02,-0.09 -0.17,0.9c-3.72,2.85 -6.23,6.9 -8.61,10.86c-4.5,7.35 -9.3,14.51 -14.09,21.67c-5.31,7.81 -10.71,15.55 -15.93,23.42c-5.21,7.83 -10.13,15.85 -14.7,24.07c-0.48,0.88 -1.72,0.19 -1.24,-0.69c4.59,-8.25 9.52,-16.3 14.76,-24.16c5.22,-7.88 10.62,-15.62 15.93,-23.43c4.78,-7.14 9.57,-14.28 14.05,-21.61c2.57,-4.25 4.56,-8.82 7.36,-12.93c2.2,-2.29 3.85,-3.34 6.67,-1.25c0.87,1.61 1.74,2.98 1.54,5.01c-0.02,2.26 -0.13,4.51 -0.13,6.77c-0.39,2.68 -0.68,5.35 -0.88,8.05c-0.1,1.74 0.05,3.94 -0.8,5.27c-1.55,2.45 -3.29,1.82 -3.97,-1z" fill="#e0d3df" id="svg_10"/>
   <path d="m541.2,355.8c1.68,-3.75 4.76,-6.34 7.5,-9.29c6.38,-6.77 11.07,-14.83 16.75,-22.16c7.35,-8.82 14.33,-17.92 20.99,-27.27c7.05,-10.36 14.54,-20.58 19.97,-31.9c4.33,-8.96 7.4,-18.38 9.98,-27.96c2.34,-7.62 4.04,-15.42 5.85,-23.19c1.02,-5.79 1.82,-11.61 2.08,-17.49c0.52,-3.11 -0.41,-6.01 -1.18,-8.87c-0.42,-0.99 -1.36,-1.32 -2.12,-1.92c-0.1,-0.33 -1.39,0.3 -1.99,0.43c-6.69,2.23 -11.57,6.06 -16.04,11.42c-4.17,5.54 -2.09,2.64 -6.2,8.69c-0.56,0.83 -1.74,0.03 -1.17,-0.8c4.16,-6.12 2.06,-3.19 6.28,-8.8c4.73,-5.66 8.14,-12.17 13.12,-17.53c3.94,-2.86 7.79,-3.81 12.13,-1.22c2.26,2.2 4.16,4.45 4.72,7.7c0.22,4.03 0.02,7.85 -1,11.81c-1.34,5.9 -2.88,11.75 -4.68,17.54c-1.96,7.8 -4.25,15.52 -6.22,23.32c-3.22,9.54 -7.08,18.87 -11.9,27.72c-6.15,11.07 -11.51,22.58 -18.63,33.1c-6.34,9.66 -13.2,18.94 -20.21,28.12c-5.61,7.38 -11.85,14.3 -16.62,22.29c-2.21,3.44 -4.07,7.05 -7.43,9.55c-2.93,2.17 -5.47,0.04 -3.98,-3.29z" fill="#e0d3df" id="svg_11"/>
   <path d="m399.65,403.55c-3.26,-1.06 -6.52,-2.07 -9.83,-3c-8.83,-2.62 -17.44,-5.88 -26,-9.3c-12.16,-3.86 -23.49,-9.49 -34.13,-16.47c-11.26,-7.75 -20.43,-17.87 -29.06,-28.36c-7.08,-8.67 -13.25,-18 -19.22,-27.45c-3.29,-5.55 -5.5,-11.6 -7.98,-17.53c-1.25,-2.62 -2.33,-5.32 -3.5,-7.98c-0.65,-1.23 -1.3,-2.42 -2,-3.63c-0.79,-4.01 1.57,-5.23 5.19,-5.12c3.45,1.37 6.67,3.26 10.19,4.46c6.51,2.95 13.39,5.01 20.18,7.23c9.6,4.04 18.69,9.24 27.32,15.05c8.79,5.25 16.88,11.42 24.51,18.23c3.76,4.14 7,8.64 10.69,12.86c0.66,0.76 -0.41,1.69 -1.07,0.93c-3.66,-4.19 -7.69,-7.64 -12.15,-10.96c-7.47,-6.68 -15.34,-12.93 -23.43,-18.83c-8.63,-5.4 -17.13,-11.19 -26.85,-14.51c-6.7,-2.56 -13.69,-4.14 -20.7,-5.67c-3.16,-1.1 -6.46,-1.99 -9.81,-2.21c0.96,-0.7 3.41,-1.37 2.64,-3.67c0.34,1.01 0.61,2.5 1.11,3.61c0.85,2.91 1.6,5.88 1.84,8.92c1.23,6.11 3.42,11.96 6.02,17.63c4.65,10.1 11.13,19.12 18.12,27.74c8.53,10.38 17.6,20.4 28.74,28.08c10.52,6.9 21.72,12.58 33.83,16.17c8.75,2.12 17.63,4.2 26.64,4.76c2.92,0.28 5.98,0.85 8.86,0.25c6.07,-1.25 5.75,10.68 -0.15,8.77z" fill="#e0d3df" id="svg_12"/>
  </g>
  <path d="m391.66,405.07c-2.27,1.04 -4.79,1.38 -7.28,1.68c-6.1,0.56 -12.2,1.08 -18.34,1.13c-10.11,0.01 -20.22,-0.2 -30.33,-0.15c-12.81,0.18 -25.56,-0.78 -38.34,-1.57c-14.21,-1.02 -28.28,-3.06 -42.22,-6.02c-13.97,-2.95 -27.53,-7.3 -41.02,-11.87c-11.17,-3.69 -21.95,-8.37 -32.57,-13.39c-6.86,-3.53 -13.89,-6.79 -20.57,-10.66c-3.8,-1.95 -7.29,-4.5 -10.72,-7.03c-2.52,-1.87 -4.32,-4.21 -5.85,-6.9c-1.16,-2.12 -1.65,-4.45 -2.19,-6.77c-0.42,-1.56 -0.41,-3.11 -0.36,-4.7c0.1,-2.56 1.43,-4.02 3.01,-5.84c2.62,-1.34 5.27,-0.94 8.06,-0.76c4.11,-0.2 8.23,0.08 12.34,0.09c6.51,0.45 13.01,0.78 19.49,1.54c7.62,0.88 15.22,1.91 22.84,2.81c7.96,0.79 15.63,3.03 23.29,5.21c8.07,2.48 16.14,4.99 24.26,7.33c7.88,2.23 15.12,6.01 22.73,8.97c0.93,0.37 0.41,1.69 -0.52,1.32c-7.62,-2.97 -15.52,-4.04 -23.39,-6.24c-8.11,-2.35 -16.21,-4.67 -24.31,-7.05c-7.47,-2.11 -15.04,-3.74 -22.7,-4.98c-7.51,-1.23 -15.06,-1.92 -22.65,-2.43c-6.28,-0.41 -12.57,-1 -18.86,-0.37c-3.96,0.24 -7.83,0.97 -11.74,1.61c-0.34,0.1 -4.7,1.49 -2.4,1.07c0.25,-0.4 1.29,-1.57 1.12,-1.79c0.02,0.22 0.34,1.63 0.27,2.31c0.23,1.17 0.35,2.34 1.02,3.35c0.98,1.35 1.9,2.72 3.26,3.74c3.07,2.47 6.25,4.81 9.36,7.23c6.07,4.4 12.04,8.89 18.57,12.6c9.87,5.84 20.02,11.28 30.69,15.54c13.15,4.88 26.68,8.8 40.42,11.67c13.76,2.59 27.67,4.53 41.65,5.35c12.62,0.78 25.27,0.59 37.89,0c10.01,-0.38 20.01,-1.02 29.97,-2.03c5.96,-0.64 11.92,-1.05 17.88,-1.72c2.44,-0.2 4.96,-0.46 7.29,0.34c4.97,1.72 5.73,5.18 0.95,7.38z" fill="#e0d3df" id="svg_13"/>
  <path d="m421.71,300.12c0.98,-2.75 2.77,-5.08 4.68,-7.26c3.33,-4.87 6.68,-9.75 10.17,-14.52c3.46,-5.07 7.08,-10.01 11.15,-14.61c3.26,-3.75 7.19,-6.23 11.96,-7.46c5.05,-0.89 9.3,1.33 13.14,4.37c4.8,2.98 6.7,7.95 9.65,12.39c0.4,0.68 0.8,1.37 1.2,2.05c0.51,0.87 -0.72,1.59 -1.22,0.72c-0.39,-0.66 -0.78,-1.33 -1.16,-1.99c-2.68,-4.03 -7.09,-6.81 -10.61,-10.09c-3.21,-1.89 -6.42,-3.65 -10.25,-3.53c-4.12,0.81 -7.73,2.28 -10.76,5.4c-4.32,4.19 -8.12,8.86 -11.48,13.86c-3.12,4.93 -6.29,9.82 -8.97,15.02c-0.7,2.22 -1.68,4.36 -1.95,6.66c-0.46,3.96 -6.89,2.75 -5.55,-1.01z" fill="#e0d3df" id="svg_14"/>
  <path d="m435.43,279.64c-0.6,-0.93 -1.68,-1.64 -2.55,-2.39c-1.4,-1.56 -3.18,-2.66 -4.86,-3.87c-1.79,-1.03 -3.78,-1.54 -5.77,-2.04c-2.24,-0.43 -4.5,-0.43 -6.76,-0.48c-2.15,0.05 -4.18,0.67 -6.23,1.25c-1.86,0.67 -3.33,1.99 -4.87,3.16c-1.69,1.53 -3.03,3.36 -4.3,5.23c-1.2,1.72 -2,3.66 -2.92,5.56c-0.14,0.29 -0.29,0.58 -0.43,0.87c-0.45,0.9 -1.55,0.52 -1.34,-0.46c0.06,-0.32 0.13,-0.65 0.2,-0.97c0.54,-2.22 1.08,-4.48 2.27,-6.45c1.37,-2.06 2.75,-4.13 4.49,-5.91c1.78,-1.72 3.48,-3.37 5.95,-4.05c2.32,-0.69 4.67,-1.1 7.1,-1.24c2.5,-0.05 5,0.06 7.44,0.66c2.36,0.51 4.66,1.04 6.67,2.46c1.85,1.22 3.7,2.42 5.47,3.75c1.1,0.96 2.2,1.87 3.09,3.02c1.42,1.82 -1.4,3.84 -2.65,1.9z" fill="#e0d3df" id="svg_15"/>
  <g fill="#ff007f" id="svg_16" transform="matrix(1 0 0 1 0 0)">
   <path d="m349.49,322.53c0.1,-1.51 -0.37,-3.01 -0.66,-4.49c-1,-3.82 -1.84,-7.68 -2.76,-11.54c-0.98,-5.38 -2.42,-10.66 -3.49,-16.03c-0.78,-5.37 -1.44,-10.72 -1.65,-16.15c-0.2,-4.92 0.88,-9.73 1.7,-14.55c0.6,-3.45 1.11,-6.9 1.94,-10.29c0.49,-2.68 1.96,-4.12 4.1,-5.52c3.27,-1.21 5.36,0.18 7.81,2.28c3.21,3.48 6.45,6.95 9.7,10.42c3.83,3.95 6.97,8.44 9.98,13.02c0.56,0.84 -0.63,1.62 -1.18,0.78c-2.97,-4.51 -6.07,-8.95 -9.84,-12.83c-3.14,-3.36 -6.26,-6.81 -10.12,-9.37c-1.6,-0.65 -2.94,-1.62 -4.75,-1.29c-1.18,1.05 -2.42,1.77 -3,3.42c-1.22,3.17 -2.42,6.34 -3.11,9.68c-1.04,4.66 -1.41,9.44 -1.41,14.21c0.07,5.29 0.43,10.67 1.75,15.81c1.05,5.28 2.08,10.66 4.08,15.67c1.31,3.7 2.95,7.17 4.83,10.6c0.85,1.6 1.64,3.22 2.36,4.89c1.79,4.16 -6.57,5.8 -6.28,1.28z" fill="#e0d3df" id="svg_17"/>
   <path d="m301.88,294.83c-0.75,-1.59 -0.99,-3.38 -1.38,-5.09c-0.85,-3.64 -1.66,-7.28 -2.24,-10.99c-0.86,-5.42 -1.78,-10.84 -3,-16.19c-0.89,-4.71 -2.15,-9.35 -2.84,-14.09c-0.68,-3.73 -1.3,-7.47 -1.85,-11.22c-0.4,-2.09 -0.76,-4.15 -0.99,-6.25c0.09,-3.03 1.44,-3.71 4.05,-4.63c2.23,0.74 3.69,2.59 5.26,4.25c2.64,2.75 4.96,5.78 7.35,8.74c3.32,3.67 6.21,7.64 9.03,11.7c3.09,4.49 6.01,9.08 8.98,13.65c2.87,4.07 5.25,8.39 7.66,12.74c1.69,4.25 3.6,8.39 5.14,12.71c1.43,3.84 2.53,7.79 3.73,11.7c0.51,3.07 0.98,6.14 1.58,9.19c0.19,0.99 -1.05,1.32 -1.37,0.37c-0.99,-2.94 -2.08,-5.81 -3.3,-8.66c-1.1,-3.9 -2.32,-7.76 -3.47,-11.65c-1.39,-4.21 -2.51,-8.56 -4.84,-12.38c-2.05,-4.42 -4.53,-8.65 -7.01,-12.84c-2.82,-4.6 -5.78,-9.13 -8.98,-13.48c-2.9,-3.91 -5.77,-7.82 -8.95,-11.5c-2.48,-2.68 -5.04,-5.3 -8.06,-7.39c-0.45,-0.3 -3.1,-2.37 -2.7,-1.38c0.15,-0.1 2.65,-1.67 1.83,-1.16c-0.09,1.9 -0.3,3.82 -0.11,5.72c0.31,3.72 0.54,7.43 1.02,11.13c0.82,4.67 1.3,9.4 2.33,14.03c0.91,5.33 1.92,10.68 3.63,15.83c1.24,3.41 2.47,6.84 3.93,10.17c0.68,1.62 1.47,3.21 1.9,4.92c1.15,4.57 -4.33,6.31 -6.33,2.05z" fill="#e0d3df" id="svg_18"/>
   <path d="m300.85,295.44c-1.32,-1.79 -2.18,-3.93 -3.15,-5.94c-1.99,-4.49 -4.34,-8.79 -6.35,-13.27c-2.54,-5.06 -5.56,-9.85 -7.87,-15.01c-2.52,-5.42 -4.49,-11.05 -6.21,-16.75c-1.53,-5.23 -3.55,-10.26 -5.27,-15.41c-1.8,-4.21 -2.76,-8.7 -3.92,-13.11c-0.77,-3.87 -1.2,-7.78 -1.82,-11.67c-0.25,-2.84 -1.06,-5.53 -1.24,-8.37c-0.28,-2.3 -0.49,-4.6 -0.68,-6.92c-0.25,-1.48 -0.23,-2.99 -0.34,-4.47c-0.03,-2.12 0.85,-4.07 1.49,-6.02c0.41,-1.37 0.81,-2.69 1.22,-4.02c0.37,-1.81 1.7,-2.68 2.96,-3.85c2.13,-1.35 4.38,-1.08 6.75,-0.74c3.14,1.33 5.75,3.5 8.4,5.59c3.89,2.99 7.46,6.35 11.2,9.52c4.31,4.26 8.45,8.72 12.48,13.25c4.27,4.62 7.95,9.74 11.74,14.77c3.42,4.8 5.89,10.13 7.97,15.61c1.28,2.66 2.41,5.39 3.53,8.12c0.38,0.93 -0.93,1.46 -1.31,0.54c-1.11,-2.71 -2.23,-5.41 -3.5,-8.05c-2.9,-4.95 -5.6,-9.99 -8.7,-14.83c-3.37,-5.26 -7.39,-9.78 -11.85,-14.15c-4.24,-4.21 -8.19,-8.7 -12.74,-12.58c-3.44,-3.21 -7.24,-5.99 -11.3,-8.37c-2.45,-1.13 -4.88,-2.4 -7.6,-2.76c-0.49,-0.17 -0.8,-0.5 -1.18,-0.42c-0.16,0.21 -0.42,0.42 -0.54,0.72c-0.52,1.21 -1.07,2.4 -1.54,3.69c-0.38,1.23 -0.81,2.38 -0.71,3.74c0,1.51 0.17,3.06 -0.07,4.58c-0.04,2.22 -0.14,4.42 -0.03,6.63c0.25,2.81 -0.13,5.56 0.13,8.36c0.15,3.79 0.51,7.57 1.25,11.28c0.86,4.37 1.83,8.69 2.93,13c1.49,5.22 2.68,10.51 4.33,15.69c1.84,5.56 3.35,11.27 5.94,16.55c2.56,5.01 4.91,10.11 7.77,14.97c2.56,4.1 4.81,8.4 7.85,12.17c1.4,1.68 2.9,3.31 4.19,5.04c2.15,2.89 -2.07,5.79 -4.21,2.89z" fill="#e0d3df" id="svg_19"/>
   <path d="m335.9,261.54c-1.08,-2.45 -1.63,-5.07 -2.3,-7.64c-1.42,-4.68 -2.87,-9.36 -4.65,-13.92c-2.18,-5.43 -3.52,-11.12 -4.65,-16.84c-1.01,-5.77 -2.05,-11.54 -3.09,-17.31c-0.86,-4.37 -1.43,-8.78 -1.95,-13.19c-0.28,-3.62 -0.57,-7.24 -0.74,-10.87c-0.27,-2.65 -0.36,-5.33 -0.34,-7.98c-0.13,-2.01 0.51,-3.91 0.93,-5.84c0.96,-2.37 2.06,-3.14 4.45,-3.66c3.27,0.52 6.04,2.37 8.76,4.15c4.1,3.21 8.32,6.24 12.35,9.53c4.42,3.62 8.06,8.01 11.52,12.52c2.25,2.87 4.43,5.76 6.44,8.8c0.55,0.84 -0.54,1.62 -1.16,0.83c-2.22,-2.86 -4.32,-5.81 -6.41,-8.77c-3.39,-4.43 -6.96,-8.73 -11.29,-12.28c-3.94,-3.23 -7.93,-6.53 -12.55,-8.75c-2.38,-1.13 -4.6,-2.71 -7.32,-2.6c-0.47,0.38 -1.88,-0.13 -1.59,1.25c-0.55,1.65 -1.06,3.26 -1.19,5.01c-0.27,2.58 -0.39,5.19 -0.62,7.78c-0.11,3.59 -0.25,7.16 0.24,10.74c0.44,4.38 1,8.75 1.86,13.08c1.04,5.76 2.08,11.52 3.09,17.29c1.11,5.62 2.38,11.25 4.64,16.55c1.91,4.53 4.23,8.88 6.09,13.44c1.08,2.22 2.19,4.46 3.17,6.72c1.18,2.71 -2.5,4.66 -3.69,1.96z" fill="#e0d3df" id="svg_20"/>
   <path d="m338.77,259.75c0.4,-2.11 0.38,-4.28 0.41,-6.42c0.16,-3.52 -0.07,-7.05 -0.21,-10.57c-0.18,-3.65 -0.15,-7.3 -0.1,-10.94c0.1,-2.66 -0.23,-5.25 -0.63,-7.86c-0.21,-2.16 -0.3,-4.31 -0.48,-6.44c-0.38,-1.86 0,-3.64 0.33,-5.45c0.14,-1.55 1.21,-2.48 2.05,-3.65c1.35,-1.69 2.78,-1.41 4.66,-1.57c2.98,0.49 5.37,2.15 7.72,3.93c3.03,2.5 5.6,5.41 7.83,8.63c2.58,4.01 4.72,8.28 6.92,12.51c2.12,4.23 4.13,8.51 6.13,12.8c1.77,3.54 3.07,7.23 4.37,10.95c0.16,0.49 0.32,0.98 0.47,1.47c0.31,0.96 -1.04,1.39 -1.35,0.44c-0.15,-0.49 -0.31,-0.98 -0.46,-1.46c-1.28,-3.66 -2.73,-7.26 -4.32,-10.8c-1.99,-4.27 -3.99,-8.54 -6.1,-12.75c-2.17,-4.17 -4.28,-8.39 -6.82,-12.35c-2.12,-3.06 -4.48,-5.99 -7.62,-8.06c-2.19,-1.14 -4.32,-2.56 -6.9,-2.69c-0.87,0.25 -1.8,0.01 -2.43,0.83c-0.56,0.78 -1.26,1.45 -1.65,2.34c-0.16,1.58 -0.36,3.17 -0.4,4.77c0.08,2.11 0.23,4.25 0.37,6.39c-0.05,2.68 -0.14,5.36 -0.27,8.04c-0.05,3.62 -0.08,7.24 0.1,10.86c0.14,3.51 0.22,7.04 0.83,10.5c0.29,2.06 0.48,4.2 1.29,6.13c1.02,2.45 -4.23,3.03 -3.74,0.42z" fill="#e0d3df" id="svg_21"/>
   <path d="m359.65,220.57c0.32,-1.83 0.44,-3.7 0.56,-5.55c0.01,-2.96 0.68,-5.81 1.38,-8.66c0.62,-3.23 1.73,-6.33 2.95,-9.37c1.32,-2.89 3.44,-4.88 5.88,-6.8c2.1,-1.64 4.52,-2.71 6.86,-3.94c2.57,-1.38 5.1,-1.44 7.87,-1.27c3.66,1.14 6.25,3.78 8.97,6.31c3.57,3.35 5.26,7.99 6.94,12.47c0.35,0.94 -0.98,1.44 -1.33,0.5c-1.61,-4.3 -3.9,-8.01 -7.23,-11.22c-2.42,-1.95 -4.85,-3.95 -7.97,-4.63c-2.13,-0.15 -3.89,-0.33 -5.86,0.88c-2.24,0.94 -4.37,2.09 -6.41,3.42c-1.94,1.58 -3.79,3.24 -4.82,5.61c-1.24,2.81 -2.4,5.61 -2.92,8.66c-0.37,2.69 -0.79,5.38 -0.75,8.1c0.08,1.69 0.06,3.46 0.63,5.06c1.14,3.18 -5.33,3.75 -4.75,0.43z" fill="#e0d3df" id="svg_22"/>
   <path d="m397.85,231.69c0.31,-1.61 0.39,-3.21 0.64,-4.82c0.27,-3.31 0.69,-6.56 1.23,-9.85c0.77,-3.74 1.73,-7.43 2.66,-11.14c0.58,-3.2 1.57,-6.3 2.69,-9.35c0.81,-2.44 1.97,-4.68 3.35,-6.83c1.12,-1.88 2.83,-3.2 4.46,-4.56c1.69,-1.65 3.51,-2.14 5.77,-2.45c3.05,-0.09 5.61,1.08 8.24,2.34c3.18,2.46 5.78,5.53 7.98,8.88c2.91,4.05 4.62,8.73 6.79,13.17c2.6,4.46 4.33,9.35 6.05,14.2c1.41,4.49 2.07,9.13 3.45,13.63c0.3,0.96 -1.06,1.37 -1.35,0.41c-1.37,-4.45 -3.45,-8.57 -5.27,-12.86c-1.82,-4.71 -3.91,-9.27 -5.94,-13.89c-2.07,-4.26 -4.46,-8.38 -6.93,-12.42c-2.05,-2.82 -4.11,-5.65 -7.03,-7.62c-1.78,-1.29 -3.45,-2.63 -5.74,-2.65c-1.47,0.36 -3.03,0.49 -4.32,1.45c-1.4,1.24 -2.85,2.38 -4.03,3.86c-1.28,1.97 -2.67,3.9 -3.53,6.12c-1.16,2.95 -2.34,5.88 -3.21,8.94c-0.97,3.63 -2.03,7.28 -2.47,11.03c-0.39,3.23 -0.84,6.46 -0.85,9.71c0.1,1.58 0.02,3.15 0.37,4.7c0.47,2.07 -3.41,2.09 -3.01,0z" fill="#e0d3df" id="svg_23"/>
   <path d="m433.04,169.22c2.15,-2.4 3.43,-5.43 5.03,-8.21c2.4,-4.06 5.13,-7.9 7.9,-11.71c2.24,-3.18 4.75,-6.15 7.29,-9.09c1.41,-2.04 3.26,-3.54 5.18,-5.04c2.3,-1.32 3.52,-0.51 5.69,0.42c1.84,1.72 3.62,3.53 5.36,5.32c2.41,3.52 4.79,7.03 6.71,10.84c2.08,4.05 4.16,8.06 5.71,12.36c1.48,3.66 2.67,7.42 3.78,11.21c0.95,2.48 0.86,5.17 0.86,7.72c0.01,1.01 -0.93,1.2 -1.38,0.31c-1.1,-2.2 -2.3,-4.51 -2.95,-6.99c-1.18,-3.69 -2.3,-7.4 -3.46,-11.09c-1.54,-4.12 -3.03,-8.31 -5.06,-12.2c-1.94,-3.56 -3.69,-7.32 -6.47,-10.31c-1.33,-1.82 -2.54,-3.67 -4.57,-4.8c-1.02,-0.32 -1.89,-1.08 -3.08,-0.72c-1.88,1.11 -3.75,2.23 -5.24,3.92c-2.53,2.89 -5.01,5.83 -7.22,8.98c-2.75,3.76 -5.45,7.56 -7.82,11.58c-1.62,2.8 -3.38,5.59 -4.24,8.73c-0.44,1.62 -3.14,0.01 -2.02,-1.23z" fill="#e0d3df" id="svg_24"/>
   <path d="m447.9,230.07c0.84,-1.85 2.19,-3.4 3.31,-5.09c2.42,-3.72 5.24,-7.14 7.88,-10.71c3.18,-4.19 6.86,-7.95 10.21,-11.99c2.87,-3.5 6.02,-6.74 9.27,-9.88c2.34,-2.31 4.75,-4.55 7.15,-6.8c1.48,-1.58 3.36,-2.65 5.16,-3.78c3.41,-0.88 4.47,1.14 4.98,4.11c0.97,2.88 1.37,5.86 1.7,8.89c0.58,4.33 0.79,8.69 0.98,13.04c0.12,3.04 0.3,6.09 0.46,9.13c0.05,1 -1.37,1.07 -1.42,0.07c-0.15,-3.05 -0.34,-6.09 -0.45,-9.14c-0.19,-4.29 -0.35,-8.6 -1.03,-12.85c-0.74,-2.68 -1.35,-5.58 -2.73,-7.97c-1.01,0.17 -1.56,-0.16 -0.33,0.06c-1.35,0.74 -2.72,1.46 -3.88,2.56c-2.58,1.94 -5.13,3.9 -7.65,5.92c-3.26,2.89 -6.52,5.78 -9.38,9.09c-3.45,3.84 -6.42,8.06 -9.55,12.17c-2.62,3.37 -4.57,7.1 -6.33,10.99c-0.83,1.7 -1.43,3.51 -2.45,5.1c-2.49,3.93 -7.82,1.32 -5.9,-2.92z" fill="#e0d3df" id="svg_25"/>
   <path d="m464.05,253.2c1.14,-1.62 2.27,-3.19 3.59,-4.67c1.26,-2.02 3.06,-3.38 4.99,-4.69c0.83,-0.57 1.55,0.37 0.88,1.11c-1.43,1.56 -2.88,3.15 -4.29,4.75c-0.84,1.53 -1.82,3.03 -1.95,4.81c-0.18,2.45 -4.63,0.7 -3.22,-1.31z" fill="#e0d3df" id="svg_26"/>
   <path d="m487.36,251.04c-0.43,-1.02 -1.19,-1.81 -1.82,-2.7c-1.67,-1.47 -3.67,-2.26 -5.65,-3.17c-0.47,0.03 -0.93,0.05 -1.4,0.08c-1,0.05 -1.07,-1.38 -0.07,-1.42c0.53,-0.02 1.06,-0.05 1.59,-0.07c2.92,-0.24 5.43,-0.15 7.91,1.84c1.31,1.08 2.58,2.07 3.17,3.75c0.96,2.73 -2.61,4.36 -3.73,1.69z" fill="#e0d3df" id="svg_27"/>
   <path d="m496.39,226.46c-1.73,1.63 -2.39,4.18 -3.01,6.47c-1.47,6.08 -1.81,12.43 -2.2,18.66c-0.2,3.3 -0.09,6.6 0.03,9.89c0.04,1.01 -1.38,1.06 -1.42,0.06c-0.12,-3.35 -0.23,-6.69 -0.02,-10.03c0.39,-6.34 1.18,-12.62 1.68,-18.94c0.3,-3.05 0.26,-6.21 1.32,-9.12c1.14,-3.13 6.04,0.72 3.62,3.01z" fill="#e0d3df" id="svg_28"/>
   <path d="m501.31,225.61c-0.32,1.2 -0.07,2.38 -0.03,3.57c0.04,1.01 -1.06,1.18 -1.39,0.24c-0.37,-1.02 -0.36,-2.15 -1.33,-2.86c-1.65,-1.23 3.28,-2.94 2.75,-0.95z" fill="#e0d3df" id="svg_29"/>
   <path d="m506.36,232.19c-0.15,-2.16 -0.35,-4.12 -0.17,-6.28c0.24,-3.02 1.09,-5.99 1.87,-8.91c0.49,-2.59 1.54,-4.93 2.75,-7.24c1.13,-1.93 2.52,-3.28 4.35,-4.43c4.13,-0.47 4.75,2.25 6.27,5.51c1.66,4.9 3.77,9.62 5.44,14.52c0.35,1.08 0.69,2.15 1.03,3.23c0.31,0.95 -1.04,1.38 -1.35,0.43c-0.34,-1.07 -0.68,-2.13 -1.02,-3.2c-1.62,-4.74 -3.13,-9.64 -6.61,-13.38c-0.67,-0.64 -3.78,-2.32 -1.78,-2.22c-0.65,0.52 -1.91,0.96 -2.29,2.07c-1.14,1.85 -2.32,3.69 -2.91,5.81c-0.72,2.75 -1.4,5.49 -1.92,8.27c-0.24,1.97 -0.92,3.84 -0.91,5.82c0.01,1.95 -2.62,1.94 -2.75,0z" fill="#e0d3df" id="svg_30"/>
   <path d="m493.75,169.51c1.84,-2.77 4,-5.41 5.79,-8.31c3.04,-4.87 5.96,-9.81 8.87,-14.76c2.07,-3.57 4.39,-6.99 6.68,-10.43c1.61,-2.58 3.69,-4.16 6.39,-5.36c3.43,-0.29 5.3,1.68 7.36,4.15c2.7,2.9 3.83,6.62 4.87,10.37c1.53,5.26 2.78,10.63 3.52,16.06c0.98,5.6 1.06,11.28 1.31,16.94c0.16,2.37 -0.16,4.72 -0.24,7.1c-0.03,1 -1.44,0.95 -1.41,-0.05c0.07,-2.35 -0.11,-4.68 0.01,-7.04c0.15,-5.59 -0.32,-11.19 -1.12,-16.72c-0.95,-5.31 -1.71,-10.68 -3.42,-15.82c-1.43,-3.33 -3.38,-6.22 -5.48,-9.15c-1.47,-1.31 -2.65,-2.84 -4.73,-3.03c-2.3,0.72 -4.14,1.5 -5.66,3.63c-2.6,3.15 -4.86,6.5 -6.86,10.07c-2.91,4.96 -5.84,9.91 -8.88,14.79c-1.76,2.83 -3.18,5.84 -4.58,8.76c-0.82,1.72 -3.48,0.39 -2.42,-1.2z" fill="#e0d3df" id="svg_31"/>
   <path d="m533.96,188.43c2.33,-1.49 4.06,-3.7 5.92,-5.71c1.83,-2.18 3.4,-4.53 5.13,-6.79c1.13,-1.6 2.66,-2.85 4.14,-4.13c2.79,-0.82 4.28,-0.18 6.27,1.62c1.8,2.85 2.63,5.93 3.31,9.18c0.57,5.55 0.88,11.13 0.74,16.71c-0.13,6.67 -1.05,13.3 -1.89,19.91c-1.5,7.35 -3.43,14.56 -5.91,21.64c-2.85,6.69 -4.35,13.9 -7.8,20.33c-2.26,2.55 -3.85,5.15 -5.04,8.31c-0.35,0.94 -1.68,0.44 -1.33,-0.49c1.19,-3.16 1.69,-6.16 1.63,-9.56c1.53,-7.07 5.19,-13.44 7.14,-20.41c2.17,-6.75 4.68,-13.5 5.07,-20.65c0.9,-6.33 1.31,-12.71 1.43,-19.1c-0.09,-5.12 -0.18,-10.26 -1.5,-15.24c-0.53,-2.38 -0.98,-4.78 -1.29,-7.19c0.18,-0.23 0.99,-0.81 0.96,-1.2c-1.23,0.58 -2.76,1.12 -3.85,2.29c-2.16,1.78 -4.31,3.58 -6.15,5.71c-1.68,2.01 -3.73,3.9 -4.37,6.5c-0.52,2.16 -4.48,-0.54 -2.61,-1.73z" fill="#e0d3df" id="svg_32"/>
   <path d="m376.05,183.62c1.07,-2.94 2.69,-5.72 3.99,-8.61c2.76,-6.08 5.09,-12.36 7.49,-18.59c2.1,-5.48 3.89,-11.07 6.08,-16.5c1.14,-3.67 2.5,-7.26 4.08,-10.75c1.25,-2.78 3.08,-4.74 5.47,-6.48c3.9,-2.01 6.5,-0.13 9.62,2.27c3.12,3.33 6.21,6.74 8.62,10.63c2.88,4.43 5.59,9.02 8.12,13.66c2.21,4.22 4.02,8.62 5.89,12.99c0.39,0.92 -0.92,1.48 -1.31,0.55c-1.85,-4.32 -3.64,-8.69 -5.82,-12.86c-2.49,-4.56 -5.34,-8.78 -9.25,-12.29c-3.24,-2.67 -5.98,-5.96 -9.58,-8.21c-1.01,-0.51 -2.03,-1.11 -3.05,-1.55c-1.29,1.24 -2.6,2.33 -3.37,4.02c-1.76,3.21 -3.55,6.45 -5.06,9.81c-2.26,5.39 -4.76,10.68 -6.91,16.11c-2.49,6.04 -5.21,12.15 -6.24,18.63c-0.47,2.87 -0.78,5.76 -0.97,8.63c-0.36,5.6 -9.72,3.82 -7.8,-1.46z" fill="#e0d3df" id="svg_33"/>
   <path d="m330.18,165.22c1.72,-1.42 3.11,-3.17 4.55,-4.84c1.89,-2.96 3.66,-5.99 5.5,-8.98c0.51,-0.9 1.12,-1.73 1.68,-2.59c0.55,-0.84 1.72,-0.05 1.18,0.79c-0.55,0.85 -1.15,1.67 -1.65,2.55c-1.84,2.97 -3.71,5.94 -5.36,9.02c-0.74,2.03 -1.6,4.07 -1.97,6.24c-0.54,3.13 -6.38,-0.17 -3.93,-2.19z" fill="#e0d3df" id="svg_34"/>
   <path d="m364.36,138.68c2.1,0.29 3.72,1.55 5.54,2.55c2.34,1.54 4.75,2.94 7.14,4.39c2.19,1.16 3.98,2.77 5.69,4.52c1.24,1.55 2.42,2.95 3.86,4.24c0.97,0.83 1.81,1.82 2.65,2.75l-0.8,1.41c-0.56,0.99 -0.17,0.54 -1.16,1.11c-0.46,0.27 -0.91,0.54 -1.37,0.8c-0.96,-0.92 -1.95,-1.85 -2.82,-2.85c-1.09,-1.61 -2.26,-3.05 -3.58,-4.5c-1.5,-1.45 -2.97,-2.95 -4.67,-4.19c-2.17,-1.61 -4.33,-3.2 -6.89,-4.18c-1.58,-0.86 -3.18,-1.6 -4.78,-2.35c-2.48,-1.17 -1.53,-4.07 1.19,-3.7z" fill="#e0d3df" id="svg_35"/>
   <path d="m464.26,135.34c1.83,-1.03 3.31,-2.55 4.85,-3.95c2.84,-2.24 5.13,-5.05 7.57,-7.7c1.62,-2.1 3.43,-4.04 5.28,-5.93c2.08,-1.99 4.1,-2 6.77,-1.82c3.18,1.25 5.4,4.03 7.74,6.39c2.83,3.2 5.25,6.72 7.8,10.15c1.82,2.64 3.65,5.22 5.05,8.1c0.51,1.22 0.15,2.5 -0.03,3.77c-0.14,0.99 -0.5,1.06 -1.33,0.49c-0.92,-0.64 -1.94,-1.28 -2.58,-2.22c-1.55,-2.63 -2.74,-5.44 -4.35,-8.04c-2.06,-3.52 -4.22,-6.92 -7.1,-9.84c-1.84,-1.83 -3.51,-3.67 -6.16,-4.44c-1.14,0.07 -2.06,-0.48 -3.08,0.65c-1.96,1.57 -3.9,3.17 -5.75,4.88c-2.51,2.56 -5.15,5.02 -7.11,8.05c-1.26,1.68 -2.61,3.35 -3.56,5.24c-1.75,3.47 -7.4,-1.87 -4.01,-3.78z" fill="#e0d3df" id="svg_36"/>
   <path d="m280.95,172.19c0.27,-2.06 0.5,-4.15 0.84,-6.21c0.48,-2.93 0.86,-5.87 1.1,-8.83c0.16,-2.48 1.12,-4.57 2.39,-6.65c2.41,-2.54 4.71,-2.3 7.8,-1.9c3.31,0.97 6.22,2.46 9.1,4.31c3.02,2.47 5.92,4.99 8.72,7.69c2.11,1.73 3.59,3.89 4.99,6.18c0.53,0.85 -0.33,1.57 -1.08,0.91c-1.97,-1.72 -3.82,-3.5 -5.41,-5.59c-2.62,-2.66 -5.16,-5.51 -8.36,-7.49c-2.55,-1.6 -4.93,-3.51 -8.1,-3.07c-1.41,0.51 -2.88,0.67 -3.94,1.83c-0.75,1.46 -1.84,2.75 -1.99,4.56c-0.77,2.77 -1.26,5.59 -1.5,8.47c-0.16,2.14 -0.46,4.27 -0.77,6.38c-0.39,2.68 -4.15,2.1 -3.79,-0.59z" fill="#e0d3df" id="svg_37"/>
  </g>
  <g fill="#3f3f3f" id="svg_38" transform="matrix(1 0 0 1 0 0)">
   <path d="m396,253.58c1.11,1.85 1.29,3.95 1.51,6.06c0.62,3.87 0.9,7.14 -0.89,10.71c0.08,0.71 0.17,1.43 0.26,2.14c0.12,0.99 -1.29,1.16 -1.41,0.17c-0.09,-0.71 -0.18,-1.42 -0.26,-2.13c-2.54,-2.95 -3.07,-6.12 -3.65,-9.89c-0.41,-2.17 -0.92,-4.31 -0.13,-6.43c1.14,-3.05 2.89,-3.43 4.57,-0.63z" fill="#e0d3df" id="svg_39"/>
   <path d="m410.07,250.08c0.13,2.64 -0.23,5.76 -0.23,8.59c0.18,3.48 -0.68,6.74 -0.33,10.18c0.11,0.99 -1.28,1.15 -1.41,0.16c-0.42,-3.48 -1.94,-6.58 -2.18,-10.12c-0.3,-2.73 -0.84,-5.71 -1.22,-8.23c-0.58,-3.78 5.18,-4.4 5.37,-0.58z" fill="#e0d3df" id="svg_40"/>
   <path d="m425.24,236.92c0.24,2.84 -0.36,5.57 -0.82,8.36c-0.16,5.4 -2.42,10.14 -3.94,15.19c-0.28,0.96 -1.21,0.92 -1.41,-0.06c-1.08,-5.16 -2.7,-10.1 -2.24,-15.47c-0.19,-2.42 -0.57,-4.84 -0.74,-7.25c-0.49,-6.48 8.6,-7.24 9.15,-0.77z" fill="#e0d3df" id="svg_41"/>
  </g>
  <path d="m434.29,249.15c-0.39,2.39 -0.94,4.81 -1.29,7.24c-0.33,2.85 -1.29,5.48 -1.8,8.29c-0.18,0.98 -1.41,0.88 -1.41,-0.12c-0.03,-2.9 -0.48,-5.69 -0.08,-8.59c0.26,-2.37 0.37,-4.74 0.39,-7.1c0.02,-2.97 4.66,-2.65 4.19,0.28z" fill="#e0d3df" id="svg_42"/>
  <g fill="#3f3f3f" id="svg_43" transform="matrix(1 0 0 1 0 0)">
   <path d="m449.68,243.94c-0.66,3.41 -2.01,6.91 -3,10.32c-1.4,4.57 -3.52,8.6 -4.31,13.35c-0.17,0.99 -1.57,0.75 -1.4,-0.24c0.78,-4.69 0.22,-9.2 0.35,-13.93c0.05,-3.4 -0.31,-6.84 -0.6,-10.14c-0.54,-6.32 10.17,-5.59 8.96,0.64z" fill="#e0d3df" id="svg_44" stroke="#e0d3df"/>
   <path d="m472.39,420.38c1.83,2.4 3.95,4.62 5.98,6.86c5.07,3.35 10.14,7.19 14.43,11.57c5.13,5.41 10.2,10.86 15.33,16.31c4.13,4.45 9.45,7.57 14.38,11.07c4.97,2.89 10.27,4.58 15.76,6.14c7.49,1.71 15.24,1.85 22.89,1.88c10.97,-0.32 21.89,-1.33 32.69,-3.23c12.56,-2.1 24.68,-6.06 36.57,-10.51c9.9,-3.84 19.53,-8.34 29,-13.13c5.06,-2.78 10.22,-5.38 15.29,-8.12c2.94,-1.62 5.77,-2.73 9.02,-3.16c2.01,1.01 4.18,1.59 6.2,2.38c1.32,0.52 1.21,0.4 0.92,1.78c-0.45,2.15 -1.05,4.34 -1.54,6.54c-2.79,2.59 -5.7,4.25 -9.54,5.16c-5.51,1.53 -10.96,3.34 -16.47,4.91c-10.23,3.26 -20.29,6.97 -30.39,10.61c-12.36,4.22 -24.82,8.18 -37.54,11.21c-11.15,2.42 -22.35,4.79 -33.76,5.59c-8.73,0.79 -17.53,1.35 -26.22,-0.19c-6.93,-1.5 -13.82,-4.04 -19.42,-8.49c-5.59,-4.18 -10.59,-8.55 -14.91,-14.11c-4.81,-5.64 -9.32,-11.52 -14.14,-17.15c-4.01,-4.49 -7.62,-9.38 -11.46,-13.96c-2.42,-2.05 -4.82,-4.14 -7.24,-6.16c-3.06,-2.56 1.75,-6.97 4.17,-3.8z" fill="#e0d3df" id="svg_45" stroke="#e0d3df"/>
   <path d="m550.59,377.37c5.56,0.67 11.08,-0.07 16.57,-0.96c13.49,-1.63 26.37,-6.13 39.13,-10.59c14.28,-4.93 28.25,-10.66 41.98,-16.96c9.2,-4.74 17.76,-10.53 26.24,-16.42c5.41,-3.78 10.84,-7.48 16.05,-11.51c3.82,-2.89 7.21,-6.23 10.45,-9.73c1.84,-1.87 3.25,-3.93 4.58,-6.15c0.15,-0.53 0.02,-1.11 0.04,-1.66c0.7,0.11 -3.74,-1.38 -4.48,-1.6c-7.69,-1.36 -15.59,-1.06 -23.36,-0.58c-10.7,0.48 -21.31,2.1 -31.9,3.59c-10.27,1.66 -20.54,3.25 -30.79,5.02c-1.4,0.24 -1.74,-1.73 -0.34,-1.97c10.27,-1.78 20.56,-3.38 30.85,-5.04c10.64,-1.5 21.31,-2.76 31.97,-4.07c8.08,-0.9 16.09,-2.26 24.19,-3.07c4.7,0.2 9.13,-0.08 12.03,4.2c0.61,3.14 0.93,5.61 -0.85,8.5c-1.62,3.13 -3.15,6.41 -5.76,8.86c-3.86,3.47 -7.84,6.9 -12.19,9.8c-5.69,3.7 -11.25,7.63 -17.36,10.63c-9.31,4.77 -18.88,9.01 -28.53,13.03c-13.79,6.32 -27.82,12.08 -42.16,17.02c-12.89,4.51 -25.78,9.03 -38.51,13.97c-5.8,1.89 -11.43,4.18 -17.2,6.09c-7,2.33 -7.97,-11.29 -0.65,-10.4z" fill="#e0d3df" id="svg_46" stroke="#e0d3df"/>
  </g>
 </g>
</svg>