<?xml version="1.0"?>
<svg width="827.59" height="699.48" xmlns="http://www.w3.org/2000/svg" xmlns:svg="http://www.w3.org/2000/svg">
 <g class="layer">
  <title>Layer 1</title>
  <g fill="#7f007f" id="svg_1">
   <path d="m405.53,414.06c-3.18,-0.87 -6.35,0.1 -9.53,0.63c-6.19,1.26 -12.22,3.1 -18.31,4.74c-6.47,1.82 -12.07,5.38 -17.73,8.9c-4.36,3.19 -7.59,7.21 -10.59,11.6c-3.47,5.71 -5.39,12.16 -7.14,18.56c-2.38,8.01 -3.53,16.31 -4.89,24.53c-1.17,8.47 -2.62,16.88 -3.98,25.3c-0.85,7.31 -2.42,14.47 -4.28,21.57c-1.57,5.55 -3.45,11.01 -5.03,16.56c-1.39,2.97 -2.65,6.02 -3.96,8.94c-0.58,1.82 -1.49,3.53 -2.22,5.21c1.81,-4.48 -0.66,-6.17 -5.29,-7.53c-0.23,0.58 2.4,-1.2 3.12,-1.56c3.82,-3.47 7.58,-7 11.04,-10.82c4.93,-5.56 10.62,-10.39 16.38,-15.05c5.3,-4.28 10.95,-8.16 16.51,-12.09c6.23,-4.12 12.4,-8.34 18.13,-13.16c7.54,-6.6 13.63,-14.39 19.63,-22.34c5.04,-7.79 8.86,-16.18 12.27,-24.78c2.95,-7.12 5.54,-14.37 8.1,-21.63c3.24,-3.19 2.55,-6.53 3.38,-9.98c0.47,-1.96 2.04,-2.33 2.81,-0.46c1.61,3.86 2.85,7.95 4.51,11.95c0.27,9.17 -2.38,17.56 -6.47,25.73c-4.57,8.91 -8.99,17.99 -14.87,26.12c-6.03,8.87 -13.17,17.05 -20.67,24.71c-5.75,5.9 -11.45,11.91 -18.54,16.26c-5.47,3.41 -11.01,6.74 -16.22,10.58c-5.34,4.4 -10.47,8.93 -15.21,13.96c-4.64,3.98 -9.02,8.39 -14.7,10.98c-2.55,1.44 -5.11,3.17 -8.01,3.72c-6.47,-1.61 -7.89,-4.14 -5.77,-9.86c0.79,-1.33 1.64,-2.86 2.5,-4.27c1.13,-2.84 2.48,-5.72 3.38,-8.72c2.53,-4.83 4.63,-9.78 6.29,-14.98c1.94,-6.81 3.86,-13.61 5.24,-20.55c1.67,-8.32 3.05,-16.69 4.45,-25.07c1.44,-8.46 3.22,-16.84 4.88,-25.25c2.05,-7.13 3.84,-14.32 7.28,-20.95c3.46,-5.69 6.81,-11.31 12.75,-14.77c6.1,-4.14 12.43,-7.76 19.04,-11.05c6.08,-3.05 12.27,-5.79 18.76,-7.88c4.02,-1.35 8.08,-2.57 12.15,-3.76c10.84,-3.16 11.7,18.95 0.81,15.96z" fill="#e0d3df" id="svg_2" stroke="#e0d3df"/>
   <path d="m425.73,406.28c2.57,0.1 5.13,1.05 7.61,1.83c4.74,1.22 9.49,2.19 14.33,2.96c5.82,1.57 11.87,1.83 17.84,2.05c5.37,0.17 10.6,-0.39 15.85,-1.3c6.2,-1.07 11.79,-3.92 17.43,-6.56c5.35,-2.81 9.99,-6.45 14.49,-10.42c2.56,-2.1 3.9,-5.07 5.46,-7.67c1.1,-1.11 0.48,-2.55 0.7,-3.72c-0.02,-0.5 -0.2,-0.83 -0.32,-1.32c-0.19,-0.37 0.28,0.78 0.42,1.16c0.53,0.31 1.17,0.33 1.76,0.5c-3.7,-0.18 -7.47,0.88 -11.1,1.67c-6.53,1.81 -13.13,3.32 -19.68,5.07c-6.41,1.51 -12.82,3.02 -19.26,4.41c-6.66,2.45 -13.21,3.26 -19.85,2.78c-6.99,1.64 -14.12,2.49 -21.24,3.34c-2,0.24 -2.32,-2.6 -0.31,-2.84c7.01,-0.83 14.03,-1.67 20.91,-3.29c5.6,-3.33 11.9,-5.74 18.79,-6.87c6.41,-1.63 12.88,-2.86 19.35,-4.24c6.47,-1.5 12.8,-3.33 18.95,-5.84c4.05,-1.55 8.11,-3.04 12.2,-4.42c3.22,-0.47 5.25,-1.18 8.05,1.14c0.82,1.53 2.45,2.82 2.38,4.7c0.14,1.62 0.68,3.2 0.44,4.9c-0.61,2.66 -1.14,5.34 -2.33,7.83c-2.8,3.67 -5.31,7.51 -9.46,9.87c-5.35,3.77 -10.84,7.39 -16.8,10.13c-6.21,3.33 -12.45,6.7 -19.29,8.57c-5.97,0.77 -11.91,1.14 -17.92,0.35c-6.3,-0.48 -12.65,-1.02 -18.97,-1.71c-4.87,-1.11 -9.75,-2.15 -14.68,-3.01c-3,-0.64 -6.06,-0.99 -8.59,-2.86c-4.39,-3.25 -2.62,-7.41 2.84,-7.19z" fill="#e0d3df" id="svg_3" stroke="#e0d3df"/>
   <path d="m542.56,375.94c5.87,0.66 10.87,-0.87 16.86,-0.72c10.11,1.2 20.2,2.44 30.29,3.81c11.9,2.5 23.07,7.33 34.55,11.17c10.22,4.52 20.65,8.54 30.75,13.3c6.62,2.34 12.58,6.06 18.82,9.22c3.77,1.18 6.65,3.78 9.62,6.26c4.08,3.86 5.26,7.29 4.59,13.03c-3.23,6.41 -6.22,5.49 -12.7,3.41c-1.93,-0.62 -1.21,-0.32 -1.74,-2.27c-0.32,-1.17 -2.04,-10.29 -4,-5.43c0.07,0.72 1.2,7.83 0.67,4.2c-1.83,-1.85 -3.54,-3.91 -5.49,-5.68c-4.93,-4.22 -10.14,-8.05 -15.35,-11.94c-9.45,-5.35 -18.98,-10.51 -29.18,-14.35c-10.35,-5.13 -21.27,-8.98 -32.49,-11.76c-9.43,-2.81 -18.86,-3.95 -28.73,-3.41c-5.7,-0.21 -10.51,-2.2 -16.04,-0.9c-5.47,1.28 -6.02,-8.57 -0.43,-7.94z" fill="#e0d3df" id="svg_4" stroke="#e0d3df"/>
   <path d="m429.94,380.31c1.31,-2.3 3.23,-4.21 4.7,-6.49c1.75,-2.45 2.86,-5.21 3.97,-7.98c0.88,-2.64 1.47,-5.35 2.16,-8.05c0.63,-2.85 0.33,-5.68 0.04,-8.54c-0.77,-3.87 -2.28,-7.53 -3.59,-11.24c-2.24,-4.73 -4.15,-9.56 -6.79,-14.1c-2.4,-5.06 -6.13,-9.33 -9.69,-13.62c-3.72,-4.47 -8.5,-7.83 -12.72,-11.75c-3.94,-3.36 -7.98,-6.58 -12.18,-9.6c-2.69,-2.05 -5.65,-3.71 -8.47,-5.55c-1.58,-0.72 -2.95,-1.74 -4.44,-2.62c-0.76,-0.18 -1.49,-0.34 -2.24,-0.5c-0.42,-1.99 -0.95,-1.1 -2.39,-1.48c-1.39,0.94 -2.44,2.25 -3.41,3.61c-1.42,2.46 -2.48,5.09 -3.52,7.72c-1.34,3.28 -1.79,6.83 -2.21,10.33c-0.3,4.21 -0.46,8.48 -0.34,12.71c0.27,5.26 1.11,10.49 2.12,15.66c1.29,5.59 3.11,11.02 4.82,16.48c2.21,5.32 4.44,10.59 7.14,15.68c2.88,4.58 5.29,9.41 8.59,13.71c3.57,4.68 7.71,9.1 12.3,12.78c3.29,2.45 5.62,5.64 9.18,7.68c0.88,0.51 0.17,1.75 -0.71,1.24c-3.62,-2.08 -7.82,-3.02 -10.92,-5.99c-4.73,-4.12 -9.66,-8.02 -13.54,-13.03c-3.18,-4.63 -6.29,-9.37 -8.48,-14.57c-2.59,-5.31 -5.23,-10.67 -6.95,-16.33c-2.07,-5.5 -3.45,-11.23 -4.47,-17.01c-1.21,-5.36 -2.32,-10.7 -2.52,-16.21c-0.11,-4.43 -0.18,-8.81 0.52,-13.21c0.59,-3.73 1.12,-7.44 2.26,-11.06c1.01,-2.86 2.02,-5.74 3.53,-8.38c1.03,-2.15 1.8,-4.3 3.78,-5.84c1.72,-1.67 3.41,-3.28 5.4,-4.6c2.13,0.04 4.17,0 6.11,1.06c2.3,0.86 4.42,1.83 6.23,3.54c2.96,2.12 5.73,4.48 8.5,6.85c3.99,3.54 7.93,7.12 11.81,10.78c4.62,3.99 8.73,8.55 12.9,13.01c4.07,4.56 7.6,9.51 11.04,14.56c2.63,4.83 5.39,9.65 7.35,14.79c2.08,4.12 3.89,8.39 4.94,12.89c0.71,4 1.16,7.94 0.22,11.98c-0.67,3.49 -1.45,6.89 -3.23,10.02c-1.73,3.05 -3.58,6.04 -5.86,8.74c-1.75,2.05 -3.17,4.52 -5.13,6.26c-3.84,3.39 -8.35,0.12 -5.81,-4.33z" fill="#e0d3df" id="svg_5" stroke="#e0d3df"/>
   <path d="m479.34,379.28c2.14,-0.11 4.21,-0.88 6.28,-1.61c5.65,-2.54 9.71,-7.41 13.54,-12.1c5.83,-7.98 9.85,-17.01 13.5,-26.15c3.63,-9.37 6.4,-19.04 8.98,-28.75c2.05,-7.92 3.48,-15.97 4.75,-24.05c0.99,-6.33 1.46,-12.75 1.3,-19.16c0,-4.81 -0.81,-9.51 -1.6,-14.23c-0.76,-3.6 -1.85,-7.12 -2.98,-10.61c-0.43,-2.1 -1.6,-3.74 -2.83,-5.41c-0.37,-0.61 -0.96,-1.07 -1.43,-1.6c2.08,-1.4 -2.64,0.47 -3.24,0.76c-4.38,3.06 -7.84,7.1 -11.06,11.32c-4.9,6.97 -8.54,14.65 -12.23,22.29c-4.74,9.64 -8.89,19.55 -12.69,29.59c-4.05,10.93 -7.46,22.07 -10.36,33.35c-2.62,10.72 -4.64,21.6 -5.71,32.58c-0.91,4.49 -0.68,9.03 -0.45,13.56c0.05,1.01 -1.38,1.08 -1.43,0.07c-0.23,-4.61 -0.33,-9.22 -0.36,-13.85c1.1,-11.12 3.01,-22.11 6.38,-32.8c3.31,-11.2 6.43,-22.48 10.59,-33.41c3.82,-10.09 7.76,-20.14 12.69,-29.75c3.83,-7.67 7.48,-15.42 11.35,-23.05c2.73,-5.08 5.74,-9.98 9.82,-14.1c2.91,-3.24 5.72,-6.62 10.53,-5.82c2.6,1.32 4.63,2.71 6.31,5.2c1.37,2.73 2.55,5.51 3.28,8.49c0.83,3.93 1.62,7.86 2.21,11.83c0.71,5.19 1.15,10.42 0.89,15.67c-0.31,6.83 -0.86,13.64 -2.3,20.34c-1.77,8.15 -4.15,16.16 -6.56,24.14c-2.86,9.81 -5.86,19.56 -9.53,29.11c-3.7,9.54 -7.68,19.03 -12.84,27.88c-3.74,6.38 -7.95,12.28 -14.11,16.56c-2.69,1.72 -5.52,3.72 -8.61,4.27c-7.5,1.34 -9.68,-10.18 -2.08,-10.56z" fill="#e0d3df" id="svg_6" stroke="#e0d3df"/>
   <path d="m508.97,374.27c2.73,-1.19 5.28,-3.09 7.7,-4.88c5.74,-4.59 10.84,-9.92 15.84,-15.29c5.3,-5.98 10.05,-12.4 14.47,-19.04c3.96,-6.3 7.88,-12.6 11.57,-19.06c3.41,-5.73 6.69,-11.45 8.77,-17.84c0.29,-1 0.59,-2.01 0.88,-3.02c0.29,-0.97 1.66,-0.57 1.37,0.4c-0.29,1.02 -0.59,2.04 -0.89,3.07c-2.1,6.43 -3.86,13.09 -6.92,19.12c-3.43,6.72 -7.23,13.34 -11.7,19.43c-4.67,6.66 -9.18,13.46 -14.54,19.6c-4.82,5.73 -10.06,11.07 -14.92,16.77c-2.31,2.78 -4.5,5.69 -7.15,8.17c-4.48,4.2 -10.11,-4.97 -4.48,-7.43z" fill="#e0d3df" id="svg_7" stroke="#e0d3df"/>
   <path d="m576.28,246.6c-0.32,-1.34 0.4,-3.34 0.78,-4.9c0.6,-2.53 0.64,-5.1 0.5,-7.68c0.17,-2.12 -0.21,-4.21 -0.44,-6.3c0.09,-0.7 -0.55,-1.95 -0.63,-2.22c1.85,1.15 0.02,-0.09 -0.17,0.9c-3.75,2.88 -6.27,6.96 -8.67,10.95c-4.53,7.4 -9.37,14.6 -14.19,21.81c-5.35,7.87 -10.79,15.67 -16.05,23.6c-5.25,7.89 -10.2,15.96 -14.8,24.24c-0.49,0.88 -1.74,0.19 -1.25,-0.69c4.62,-8.31 9.59,-16.42 14.86,-24.34c5.26,-7.93 10.7,-15.73 16.05,-23.6c4.81,-7.19 9.64,-14.38 14.15,-21.76c2.58,-4.29 4.59,-8.89 7.41,-13.03c2.22,-2.3 3.88,-3.36 6.72,-1.26c0.88,1.63 1.75,3.01 1.55,5.05c-0.02,2.28 -0.13,4.55 -0.13,6.82c-0.4,2.7 -0.69,5.39 -0.89,8.11c-0.09,1.75 0.05,3.97 -0.8,5.31c-1.57,2.46 -3.32,1.83 -4,-1.01z" fill="#e0d3df" id="svg_8" stroke="#e0d3df"/>
   <path d="m545.17,353.33c1.69,-3.78 4.8,-6.39 7.55,-9.36c6.43,-6.81 11.15,-14.94 16.87,-22.32c7.4,-8.88 14.44,-18.05 21.15,-27.47c7.1,-10.42 14.64,-20.72 20.11,-32.13c4.36,-9.02 7.45,-18.5 10.05,-28.15c2.36,-7.68 4.07,-15.54 5.9,-23.36c1.02,-5.84 1.82,-11.69 2.09,-17.62c0.52,-3.13 -0.42,-6.05 -1.19,-8.94c-0.42,-0.99 -1.37,-1.32 -2.14,-1.92c-0.1,-0.34 -1.39,0.3 -2,0.42c-6.74,2.25 -11.65,6.11 -16.15,11.51c-4.2,5.58 -2.11,2.66 -6.25,8.75c-0.57,0.84 -1.75,0.03 -1.18,-0.8c4.19,-6.17 2.07,-3.22 6.33,-8.87c4.76,-5.7 8.2,-12.25 13.22,-17.66c3.96,-2.88 7.84,-3.83 12.21,-1.22c2.28,2.22 4.19,4.48 4.75,7.75c0.23,4.07 0.02,7.92 -1,11.9c-1.36,5.94 -2.91,11.83 -4.71,17.67c-1.99,7.85 -4.29,15.63 -6.28,23.48c-3.24,9.61 -7.13,19.01 -11.98,27.93c-6.19,11.14 -11.59,22.73 -18.76,33.33c-6.38,9.74 -13.29,19.08 -20.36,28.33c-5.65,7.43 -11.93,14.4 -16.74,22.44c-2.23,3.47 -4.1,7.1 -7.48,9.62c-2.95,2.2 -5.51,0.04 -4.01,-3.31z" fill="#e0d3df" id="svg_9" stroke="#e0d3df"/>
   <path d="m402.59,401.42c-3.29,-1.07 -6.57,-2.09 -9.9,-3.02c-8.9,-2.64 -17.57,-5.92 -26.18,-9.37c-12.25,-3.88 -23.66,-9.56 -34.38,-16.58c-11.34,-7.81 -20.58,-18.01 -29.27,-28.57c-7.13,-8.73 -13.34,-18.13 -19.36,-27.65c-3.32,-5.59 -5.54,-11.69 -8.04,-17.66c-1.26,-2.64 -2.35,-5.35 -3.52,-8.03c-0.66,-1.25 -1.31,-2.44 -2.02,-3.66c-0.8,-4.04 1.59,-5.26 5.23,-5.16c3.48,1.38 6.72,3.29 10.26,4.49c6.56,2.98 13.5,5.05 20.33,7.29c9.67,4.07 18.82,9.3 27.51,15.16c8.86,5.28 17.01,11.5 24.69,18.35c3.79,4.17 7.05,8.71 10.77,12.96c0.66,0.76 -0.41,1.7 -1.08,0.94c-3.68,-4.22 -7.74,-7.7 -12.24,-11.04c-7.52,-6.73 -15.44,-13.02 -23.6,-18.97c-8.69,-5.44 -17.25,-11.26 -27.04,-14.61c-6.75,-2.58 -13.79,-4.17 -20.84,-5.71c-3.19,-1.11 -6.51,-2 -9.89,-2.23c0.97,-0.7 3.44,-1.38 2.66,-3.69c0.34,1.02 0.62,2.52 1.12,3.63c0.86,2.94 1.61,5.92 1.85,8.99c1.25,6.15 3.45,12.04 6.06,17.75c4.69,10.18 11.22,19.26 18.25,27.94c8.6,10.46 17.74,20.55 28.95,28.28c10.6,6.95 21.88,12.68 34.07,16.29c8.82,2.13 17.76,4.23 26.84,4.8c2.94,0.27 6.02,0.85 8.92,0.25c6.12,-1.26 5.79,10.76 -0.15,8.83z" fill="#e0d3df" id="svg_10" stroke="#e0d3df"/>
   <path d="m394.55,400.93c-2.28,1.05 -4.83,1.39 -7.33,1.69c-6.14,0.56 -12.29,1.09 -18.47,1.14c-10.18,0.01 -20.36,-0.2 -30.55,-0.15c-12.91,0.18 -25.74,-0.78 -38.61,-1.58c-14.32,-1.03 -28.49,-3.09 -42.53,-6.07c-14.06,-2.96 -27.72,-7.35 -41.32,-11.95c-11.25,-3.72 -22.1,-8.43 -32.8,-13.49c-6.9,-3.55 -13.99,-6.83 -20.72,-10.73c-3.82,-1.97 -7.34,-4.53 -10.79,-7.08c-2.54,-1.89 -4.36,-4.25 -5.89,-6.95c-1.18,-2.14 -1.67,-4.49 -2.21,-6.82c-0.42,-1.57 -0.42,-3.14 -0.37,-4.74c0.1,-2.57 1.45,-4.05 3.04,-5.88c2.64,-1.35 5.31,-0.95 8.11,-0.77c4.15,-0.19 8.29,0.09 12.44,0.09c6.55,0.46 13.1,0.79 19.62,1.56c7.68,0.89 15.34,1.92 23.01,2.83c8.01,0.79 15.74,3.05 23.45,5.25c8.13,2.5 16.26,5.02 24.44,7.38c7.94,2.25 15.23,6.05 22.89,9.04c0.94,0.36 0.42,1.69 -0.52,1.33c-7.67,-3 -15.63,-4.07 -23.55,-6.29c-8.17,-2.36 -16.33,-4.71 -24.5,-7.1c-7.51,-2.13 -15.14,-3.77 -22.86,-5.02c-7.56,-1.24 -15.16,-1.94 -22.81,-2.45c-6.33,-0.41 -12.66,-1 -18.99,-0.37c-3.99,0.24 -7.89,0.97 -11.83,1.62c-0.34,0.11 -4.73,1.5 -2.41,1.08c0.24,-0.4 1.3,-1.58 1.12,-1.8c0.03,0.22 0.35,1.64 0.28,2.33c0.22,1.17 0.34,2.35 1.02,3.37c0.99,1.36 1.92,2.74 3.29,3.77c3.08,2.49 6.29,4.84 9.43,7.28c6.11,4.42 12.12,8.95 18.69,12.69c9.95,5.88 20.17,11.36 30.92,15.65c13.25,4.92 26.87,8.87 40.71,11.75c13.86,2.62 27.87,4.57 41.95,5.39c12.7,0.79 25.45,0.6 38.16,0c10.08,-0.38 20.15,-1.03 30.18,-2.04c6,-0.65 12.01,-1.06 18.01,-1.74c2.46,-0.19 4.99,-0.46 7.34,0.35c5.01,1.73 5.77,5.22 0.96,7.43z" fill="#e0d3df" id="svg_11" stroke="#e0d3df"/>
   <path d="m425.82,297.25c0.99,-2.77 2.79,-5.11 4.72,-7.31c3.35,-4.91 6.72,-9.83 10.23,-14.63c3.49,-5.1 7.13,-10.08 11.23,-14.71c3.29,-3.78 7.25,-6.27 12.05,-7.52c5.08,-0.89 9.37,1.35 13.23,4.41c4.84,3 6.76,8.01 9.72,12.47c0.41,0.69 0.81,1.38 1.22,2.07c0.51,0.87 -0.73,1.6 -1.24,0.72c-0.39,-0.66 -0.78,-1.33 -1.17,-2c-2.69,-4.06 -7.13,-6.86 -10.68,-10.16c-3.23,-1.91 -6.46,-3.68 -10.32,-3.55c-4.15,0.81 -7.79,2.29 -10.84,5.43c-4.35,4.22 -8.18,8.93 -11.56,13.96c-3.14,4.97 -6.34,9.89 -9.04,15.13c-0.7,2.23 -1.69,4.39 -1.96,6.7c-0.46,4 -6.94,2.77 -5.59,-1.01z" fill="#e0d3df" id="svg_12" stroke="#e0d3df"/>
   <path d="m438.63,276.62c-0.6,-0.93 -1.7,-1.65 -2.57,-2.41c-1.4,-1.57 -3.2,-2.68 -4.89,-3.89c-1.81,-1.04 -3.81,-1.55 -5.81,-2.06c-2.26,-0.43 -4.54,-0.44 -6.82,-0.49c-2.16,0.05 -4.21,0.68 -6.26,1.27c-1.88,0.67 -3.36,2 -4.92,3.18c-1.7,1.54 -3.04,3.39 -4.32,5.26c-1.22,1.74 -2.02,3.7 -2.95,5.6c-0.14,0.3 -0.29,0.59 -0.43,0.88c-0.45,0.91 -1.56,0.53 -1.35,-0.46c0.07,-0.33 0.13,-0.65 0.2,-0.98c0.55,-2.23 1.09,-4.51 2.29,-6.5c1.38,-2.07 2.77,-4.15 4.52,-5.95c1.8,-1.73 3.5,-3.4 5.99,-4.08c2.34,-0.69 4.71,-1.11 7.16,-1.25c2.52,-0.04 5.03,0.07 7.49,0.67c2.37,0.51 4.69,1.05 6.72,2.48c1.86,1.23 3.72,2.44 5.5,3.77c1.12,0.97 2.22,1.89 3.12,3.05c1.43,1.83 -1.41,3.86 -2.67,1.91z" fill="#e0d3df" id="svg_13" stroke="#e0d3df"/>
   <path d="m352.07,319.81c0.1,-1.52 -0.37,-3.03 -0.66,-4.52c-1.01,-3.85 -1.86,-7.74 -2.78,-11.63c-0.99,-5.41 -2.44,-10.73 -3.52,-16.14c-0.78,-5.41 -1.45,-10.8 -1.66,-16.26c-0.21,-4.96 0.89,-9.81 1.71,-14.66c0.6,-3.47 1.12,-6.95 1.95,-10.37c0.5,-2.7 1.98,-4.15 4.14,-5.56c3.29,-1.22 5.4,0.19 7.86,2.3c3.24,3.5 6.5,7 9.77,10.5c3.85,3.97 7.02,8.5 10.06,13.11c0.55,0.84 -0.64,1.63 -1.2,0.78c-2.99,-4.54 -6.11,-9 -9.91,-12.92c-3.16,-3.38 -6.3,-6.85 -10.19,-9.43c-1.62,-0.66 -2.96,-1.64 -4.78,-1.3c-1.2,1.05 -2.45,1.78 -3.03,3.44c-1.22,3.19 -2.43,6.38 -3.13,9.75c-1.04,4.69 -1.42,9.51 -1.42,14.31c0.07,5.33 0.44,10.75 1.76,15.92c1.06,5.33 2.1,10.74 4.11,15.79c1.32,3.73 2.98,7.22 4.87,10.67c0.85,1.62 1.65,3.25 2.38,4.93c1.8,4.19 -6.62,5.85 -6.33,1.29z" fill="#e0d3df" id="svg_14" stroke="#e0d3df"/>
   <path d="m304.12,291.91c-0.75,-1.6 -1,-3.41 -1.39,-5.12c-0.86,-3.68 -1.67,-7.34 -2.26,-11.08c-0.86,-5.46 -1.79,-10.91 -3.02,-16.3c-0.89,-4.75 -2.16,-9.42 -2.86,-14.2c-0.69,-3.75 -1.3,-7.52 -1.86,-11.3c-0.4,-2.1 -0.76,-4.17 -1,-6.29c0.09,-3.06 1.45,-3.74 4.08,-4.66c2.25,0.74 3.72,2.61 5.3,4.28c2.66,2.77 4.99,5.82 7.4,8.8c3.35,3.69 6.25,7.69 9.1,11.78c3.11,4.52 6.05,9.15 9.04,13.75c2.89,4.1 5.29,8.46 7.71,12.83c1.71,4.28 3.64,8.46 5.18,12.81c1.45,3.86 2.56,7.84 3.76,11.78c0.52,3.09 0.98,6.18 1.59,9.26c0.19,0.99 -1.06,1.32 -1.38,0.37c-1,-2.96 -2.1,-5.85 -3.32,-8.73c-1.11,-3.92 -2.34,-7.81 -3.49,-11.73c-1.41,-4.24 -2.54,-8.62 -4.89,-12.46c-2.06,-4.46 -4.56,-8.71 -7.06,-12.93c-2.84,-4.64 -5.81,-9.21 -9.04,-13.59c-2.92,-3.93 -5.81,-7.87 -9.01,-11.58c-2.5,-2.7 -5.08,-5.33 -8.12,-7.44c-0.46,-0.3 -3.12,-2.39 -2.72,-1.39c0.15,-0.1 2.67,-1.68 1.85,-1.16c-0.1,1.91 -0.31,3.84 -0.11,5.75c0.3,3.75 0.54,7.48 1.02,11.21c0.82,4.7 1.31,9.47 2.34,14.13c0.93,5.37 1.95,10.76 3.66,15.94c1.26,3.44 2.49,6.9 3.96,10.25c0.69,1.63 1.49,3.24 1.92,4.96c1.15,4.59 -4.36,6.35 -6.38,2.06z" fill="#e0d3df" id="svg_15" stroke="#e0d3df"/>
   <path d="m303.09,292.53c-1.33,-1.8 -2.19,-3.96 -3.17,-5.99c-2.01,-4.52 -4.38,-8.84 -6.4,-13.36c-2.56,-5.09 -5.6,-9.92 -7.93,-15.12c-2.53,-5.45 -4.51,-11.12 -6.25,-16.87c-1.54,-5.26 -3.57,-10.33 -5.31,-15.52c-1.81,-4.24 -2.78,-8.76 -3.95,-13.2c-0.78,-3.9 -1.2,-7.83 -1.82,-11.75c-0.26,-2.87 -1.07,-5.57 -1.26,-8.44c-0.28,-2.32 -0.49,-4.63 -0.68,-6.96c-0.25,-1.5 -0.24,-3.02 -0.34,-4.51c-0.03,-2.13 0.85,-4.1 1.49,-6.06c0.42,-1.38 0.82,-2.71 1.23,-4.05c0.38,-1.83 1.71,-2.7 2.99,-3.88c2.14,-1.36 4.41,-1.09 6.8,-0.74c3.16,1.33 5.79,3.52 8.46,5.63c3.91,3.01 7.51,6.39 11.27,9.58c4.34,4.3 8.52,8.78 12.58,13.35c4.29,4.65 8.01,9.81 11.82,14.87c3.44,4.84 5.93,10.21 8.02,15.73c1.3,2.68 2.44,5.42 3.56,8.17c0.39,0.94 -0.94,1.48 -1.32,0.55c-1.12,-2.73 -2.24,-5.45 -3.53,-8.1c-2.92,-4.99 -5.63,-10.07 -8.76,-14.94c-3.39,-5.3 -7.44,-9.86 -11.93,-14.26c-4.27,-4.24 -8.25,-8.76 -12.84,-12.67c-3.46,-3.23 -7.29,-6.03 -11.37,-8.43c-2.47,-1.14 -4.92,-2.42 -7.66,-2.77c-0.5,-0.18 -0.81,-0.51 -1.19,-0.43c-0.16,0.21 -0.42,0.42 -0.54,0.72c-0.52,1.23 -1.08,2.43 -1.55,3.72c-0.38,1.24 -0.82,2.4 -0.72,3.76c0.01,1.53 0.17,3.09 -0.07,4.62c-0.04,2.24 -0.13,4.45 -0.02,6.68c0.25,2.83 -0.14,5.6 0.12,8.43c0.15,3.81 0.52,7.61 1.27,11.36c0.86,4.39 1.84,8.74 2.95,13.09c1.5,5.26 2.69,10.58 4.35,15.8c1.86,5.6 3.38,11.35 5.99,16.66c2.57,5.05 4.94,10.19 7.82,15.08c2.58,4.13 4.85,8.46 7.91,12.26c1.41,1.69 2.92,3.34 4.22,5.08c2.17,2.91 -2.08,5.83 -4.24,2.91z" fill="#e0d3df" id="svg_16" stroke="#e0d3df"/>
   <path d="m338.39,258.39c-1.09,-2.47 -1.65,-5.11 -2.31,-7.7c-1.44,-4.71 -2.9,-9.43 -4.69,-14.02c-2.2,-5.47 -3.55,-11.19 -4.69,-16.96c-1.01,-5.81 -2.06,-11.62 -3.11,-17.43c-0.87,-4.4 -1.44,-8.84 -1.96,-13.29c-0.28,-3.64 -0.58,-7.29 -0.75,-10.95c-0.27,-2.66 -0.35,-5.36 -0.34,-8.03c-0.13,-2.03 0.51,-3.94 0.94,-5.89c0.97,-2.38 2.07,-3.16 4.49,-3.68c3.29,0.53 6.08,2.39 8.82,4.18c4.12,3.23 8.37,6.28 12.43,9.6c4.45,3.64 8.12,8.06 11.61,12.6c2.27,2.89 4.45,5.81 6.48,8.88c0.56,0.84 -0.54,1.62 -1.16,0.83c-2.24,-2.89 -4.36,-5.85 -6.46,-8.84c-3.41,-4.45 -7.01,-8.79 -11.37,-12.37c-3.97,-3.24 -7.99,-6.57 -12.64,-8.81c-2.4,-1.13 -4.63,-2.73 -7.38,-2.61c-0.47,0.37 -1.89,-0.13 -1.59,1.26c-0.56,1.65 -1.07,3.28 -1.21,5.04c-0.27,2.6 -0.38,5.23 -0.62,7.84c-0.11,3.61 -0.26,7.21 0.24,10.81c0.44,4.42 1.01,8.82 1.88,13.18c1.04,5.8 2.09,11.6 3.11,17.41c1.11,5.67 2.4,11.33 4.67,16.67c1.92,4.57 4.27,8.94 6.14,13.54c1.08,2.23 2.2,4.49 3.19,6.77c1.19,2.73 -2.52,4.69 -3.72,1.97z" fill="#e0d3df" id="svg_17" stroke="#e0d3df"/>
   <path d="m341.28,256.59c0.4,-2.12 0.38,-4.31 0.42,-6.47c0.15,-3.54 -0.07,-7.1 -0.22,-10.65c-0.17,-3.67 -0.15,-7.34 -0.1,-11.02c0.1,-2.67 -0.23,-5.28 -0.63,-7.9c-0.21,-2.18 -0.31,-4.35 -0.48,-6.49c-0.39,-1.88 -0.01,-3.67 0.33,-5.49c0.13,-1.57 1.22,-2.5 2.06,-3.68c1.36,-1.7 2.8,-1.42 4.69,-1.59c3.01,0.5 5.41,2.17 7.78,3.97c3.05,2.51 5.64,5.45 7.89,8.69c2.59,4.04 4.75,8.34 6.96,12.6c2.14,4.26 4.17,8.57 6.17,12.89c1.79,3.56 3.1,7.28 4.41,11.03c0.16,0.49 0.32,0.99 0.48,1.48c0.3,0.97 -1.06,1.4 -1.36,0.44c-0.16,-0.49 -0.32,-0.98 -0.47,-1.47c-1.29,-3.68 -2.75,-7.31 -4.35,-10.87c-2,-4.31 -4.02,-8.6 -6.15,-12.84c-2.18,-4.21 -4.31,-8.45 -6.87,-12.45c-2.12,-3.08 -4.51,-6.03 -7.66,-8.11c-2.22,-1.15 -4.36,-2.58 -6.96,-2.72c-0.88,0.26 -1.81,0.02 -2.44,0.84c-0.57,0.79 -1.27,1.46 -1.67,2.36c-0.16,1.6 -0.36,3.2 -0.39,4.81c0.07,2.12 0.22,4.27 0.36,6.44c-0.05,2.69 -0.13,5.39 -0.27,8.09c-0.05,3.65 -0.08,7.29 0.1,10.94c0.14,3.53 0.22,7.09 0.83,10.58c0.3,2.07 0.49,4.22 1.3,6.17c1.03,2.47 -4.25,3.05 -3.76,0.42z" fill="#e0d3df" id="svg_18" stroke="#e0d3df"/>
   <path d="m362.31,217.12c0.32,-1.84 0.44,-3.72 0.57,-5.59c0.01,-2.98 0.68,-5.85 1.39,-8.73c0.61,-3.24 1.74,-6.36 2.96,-9.43c1.34,-2.91 3.47,-4.92 5.93,-6.85c2.12,-1.65 4.55,-2.73 6.91,-3.97c2.58,-1.38 5.14,-1.45 7.92,-1.27c3.69,1.14 6.3,3.8 9.04,6.35c3.59,3.37 5.29,8.05 6.99,12.56c0.35,0.94 -0.99,1.44 -1.34,0.5c-1.62,-4.33 -3.93,-8.06 -7.28,-11.3c-2.44,-1.96 -4.89,-3.98 -8.03,-4.66c-2.15,-0.15 -3.92,-0.33 -5.9,0.88c-2.26,0.96 -4.4,2.11 -6.46,3.45c-1.96,1.59 -3.81,3.27 -4.85,5.64c-1.25,2.84 -2.42,5.66 -2.94,8.73c-0.38,2.71 -0.8,5.42 -0.76,8.16c0.08,1.7 0.06,3.49 0.64,5.1c1.14,3.2 -5.37,3.78 -4.79,0.43z" fill="#e0d3df" id="svg_19" stroke="#e0d3df"/>
   <path d="m400.78,228.32c0.31,-1.62 0.4,-3.23 0.65,-4.86c0.27,-3.33 0.69,-6.61 1.23,-9.91c0.78,-3.77 1.75,-7.49 2.68,-11.23c0.58,-3.22 1.59,-6.34 2.71,-9.41c0.81,-2.46 1.98,-4.72 3.38,-6.89c1.13,-1.88 2.84,-3.21 4.48,-4.58c1.71,-1.67 3.54,-2.16 5.82,-2.47c3.07,-0.09 5.65,1.08 8.3,2.35c3.2,2.48 5.82,5.57 8.03,8.95c2.94,4.08 4.66,8.79 6.85,13.26c2.61,4.5 4.35,9.42 6.09,14.31c1.42,4.52 2.08,9.19 3.48,13.72c0.29,0.97 -1.07,1.39 -1.37,0.42c-1.38,-4.49 -3.48,-8.64 -5.3,-12.96c-1.84,-4.74 -3.95,-9.34 -5.99,-13.99c-2.08,-4.29 -4.49,-8.44 -6.98,-12.51c-2.06,-2.84 -4.14,-5.69 -7.08,-7.67c-1.79,-1.3 -3.47,-2.65 -5.78,-2.67c-1.47,0.36 -3.05,0.49 -4.35,1.46c-1.41,1.25 -2.87,2.39 -4.06,3.89c-1.28,1.98 -2.69,3.93 -3.55,6.16c-1.18,2.97 -2.36,5.92 -3.24,9c-0.98,3.67 -2.04,7.34 -2.48,11.12c-0.4,3.25 -0.85,6.5 -0.87,9.78c0.11,1.58 0.03,3.17 0.38,4.73c0.48,2.09 -3.43,2.1 -3.03,0z" fill="#e0d3df" id="svg_20" stroke="#e0d3df"/>
   <path d="m436.23,165.41c2.17,-2.41 3.45,-5.47 5.07,-8.27c2.41,-4.09 5.16,-7.96 7.95,-11.79c2.26,-3.21 4.78,-6.2 7.35,-9.16c1.42,-2.05 3.28,-3.57 5.21,-5.08c2.32,-1.32 3.55,-0.51 5.73,0.43c1.86,1.73 3.65,3.55 5.41,5.36c2.42,3.54 4.82,7.07 6.75,10.92c2.1,4.08 4.19,8.11 5.75,12.44c1.49,3.69 2.69,7.48 3.81,11.29c0.95,2.5 0.86,5.21 0.87,7.78c0,1.01 -0.94,1.21 -1.4,0.31c-1.11,-2.21 -2.31,-4.54 -2.97,-7.04c-1.19,-3.72 -2.32,-7.45 -3.48,-11.17c-1.55,-4.15 -3.05,-8.37 -5.1,-12.29c-1.95,-3.58 -3.72,-7.36 -6.51,-10.38c-1.35,-1.83 -2.56,-3.7 -4.6,-4.83c-1.03,-0.33 -1.91,-1.09 -3.11,-0.73c-1.9,1.12 -3.78,2.25 -5.28,3.95c-2.55,2.91 -5.05,5.87 -7.27,9.04c-2.77,3.79 -5.49,7.62 -7.87,11.66c-1.63,2.83 -3.41,5.64 -4.28,8.8c-0.44,1.63 -3.16,0.01 -2.03,-1.24z" fill="#e0d3df" id="svg_21" stroke="#e0d3df"/>
   <path d="m451.19,226.69c0.85,-1.87 2.21,-3.42 3.33,-5.13c2.44,-3.75 5.28,-7.19 7.94,-10.79c3.2,-4.21 6.91,-8 10.28,-12.07c2.9,-3.52 6.07,-6.79 9.34,-9.95c2.36,-2.33 4.78,-4.58 7.2,-6.85c1.49,-1.6 3.39,-2.67 5.2,-3.8c3.44,-0.89 4.51,1.14 5.01,4.13c0.98,2.9 1.39,5.9 1.72,8.96c0.58,4.35 0.79,8.75 0.99,13.13c0.12,3.07 0.3,6.13 0.45,9.19c0.06,1.01 -1.37,1.08 -1.42,0.08c-0.16,-3.07 -0.34,-6.14 -0.46,-9.2c-0.19,-4.33 -0.35,-8.67 -1.03,-12.95c-0.75,-2.7 -1.36,-5.62 -2.75,-8.03c-1.02,0.18 -1.57,-0.16 -0.34,0.06c-1.36,0.75 -2.73,1.47 -3.9,2.58c-2.6,1.95 -5.17,3.93 -7.7,5.96c-3.29,2.92 -6.57,5.82 -9.45,9.15c-3.48,3.88 -6.48,8.13 -9.63,12.27c-2.63,3.4 -4.6,7.15 -6.37,11.06c-0.84,1.72 -1.44,3.54 -2.46,5.14c-2.52,3.97 -7.89,1.33 -5.95,-2.94z" fill="#e0d3df" id="svg_22" stroke="#e0d3df"/>
   <path d="m467.46,249.99c1.15,-1.63 2.29,-3.21 3.62,-4.7c1.27,-2.03 3.08,-3.4 5.02,-4.73c0.83,-0.57 1.57,0.38 0.88,1.12c-1.43,1.58 -2.89,3.17 -4.31,4.78c-0.85,1.55 -1.84,3.06 -1.97,4.85c-0.18,2.47 -4.66,0.7 -3.24,-1.32z" fill="#e0d3df" id="svg_23" stroke="#e0d3df"/>
   <path d="m490.94,247.81c-0.43,-1.03 -1.2,-1.82 -1.84,-2.72c-1.67,-1.48 -3.69,-2.27 -5.68,-3.19c-0.47,0.02 -0.94,0.05 -1.41,0.07c-1.01,0.06 -1.08,-1.38 -0.07,-1.42c0.53,-0.03 1.06,-0.05 1.6,-0.07c2.94,-0.24 5.47,-0.16 7.97,1.85c1.32,1.09 2.59,2.09 3.19,3.78c0.96,2.75 -2.63,4.39 -3.76,1.7z" fill="#e0d3df" id="svg_24" stroke="#e0d3df"/>
   <path d="m500.03,223.06c-1.74,1.64 -2.41,4.21 -3.03,6.51c-1.48,6.13 -1.83,12.52 -2.21,18.8c-0.21,3.32 -0.1,6.65 0.02,9.97c0.04,1.01 -1.38,1.06 -1.42,0.05c-0.13,-3.37 -0.24,-6.74 -0.03,-10.1c0.39,-6.38 1.2,-12.71 1.69,-19.07c0.3,-3.07 0.26,-6.26 1.33,-9.19c1.15,-3.15 6.09,0.73 3.65,3.03z" fill="#e0d3df" id="svg_25" stroke="#e0d3df"/>
   <path d="m504.99,222.2c-0.32,1.2 -0.07,2.39 -0.03,3.6c0.04,1.01 -1.07,1.19 -1.4,0.24c-0.37,-1.03 -0.37,-2.16 -1.34,-2.89c-1.67,-1.23 3.3,-2.95 2.77,-0.95z" fill="#e0d3df" id="svg_26" stroke="#e0d3df"/>
   <path d="m510.08,228.82c-0.15,-2.17 -0.36,-4.15 -0.17,-6.33c0.24,-3.03 1.09,-6.03 1.88,-8.97c0.49,-2.61 1.55,-4.97 2.77,-7.29c1.14,-1.94 2.54,-3.31 4.39,-4.47c4.15,-0.47 4.78,2.28 6.31,5.55c1.67,4.94 3.79,9.7 5.48,14.63c0.35,1.08 0.69,2.17 1.04,3.25c0.31,0.96 -1.05,1.4 -1.36,0.44c-0.34,-1.08 -0.69,-2.15 -1.03,-3.23c-1.63,-4.77 -3.16,-9.71 -6.66,-13.47c-0.67,-0.65 -3.8,-2.34 -1.8,-2.24c-0.65,0.52 -1.91,0.97 -2.3,2.08c-1.15,1.87 -2.33,3.72 -2.93,5.86c-0.73,2.77 -1.41,5.53 -1.94,8.32c-0.23,2 -0.92,3.88 -0.91,5.87c0.01,1.96 -2.64,1.95 -2.77,0z" fill="#e0d3df" id="svg_27" stroke="#e0d3df"/>
   <path d="m497.37,165.7c1.85,-2.79 4.03,-5.45 5.84,-8.37c3.05,-4.91 5.99,-9.88 8.92,-14.86c2.09,-3.61 4.42,-7.05 6.73,-10.51c1.63,-2.6 3.72,-4.19 6.44,-5.4c3.46,-0.29 5.34,1.7 7.41,4.17c2.72,2.93 3.86,6.67 4.91,10.45c1.53,5.31 2.8,10.71 3.55,16.18c0.98,5.64 1.06,11.36 1.31,17.06c0.16,2.39 -0.16,4.76 -0.23,7.15c-0.04,1.01 -1.47,0.96 -1.43,-0.05c0.07,-2.37 -0.11,-4.71 0.01,-7.09c0.15,-5.63 -0.32,-11.27 -1.13,-16.84c-0.96,-5.35 -1.72,-10.75 -3.45,-15.93c-1.43,-3.36 -3.4,-6.27 -5.51,-9.22c-1.48,-1.32 -2.67,-2.86 -4.77,-3.06c-2.31,0.73 -4.16,1.52 -5.7,3.66c-2.61,3.17 -4.89,6.56 -6.91,10.15c-2.93,4.99 -5.88,9.98 -8.94,14.89c-1.77,2.86 -3.2,5.88 -4.61,8.83c-0.83,1.73 -3.5,0.39 -2.44,-1.21z" fill="#e0d3df" id="svg_28" stroke="#e0d3df"/>
   <path d="m537.87,184.75c2.34,-1.5 4.09,-3.72 5.96,-5.75c1.85,-2.19 3.43,-4.57 5.17,-6.84c1.14,-1.61 2.68,-2.87 4.17,-4.15c2.81,-0.83 4.31,-0.19 6.31,1.63c1.81,2.86 2.65,5.96 3.33,9.24c0.58,5.59 0.89,11.21 0.75,16.83c-0.13,6.72 -1.06,13.39 -1.9,20.06c-1.51,7.39 -3.45,14.66 -5.96,21.78c-2.87,6.75 -4.38,14.01 -7.85,20.48c-2.27,2.57 -3.88,5.19 -5.07,8.38c-0.36,0.94 -1.7,0.44 -1.34,-0.5c1.19,-3.18 1.7,-6.2 1.64,-9.63c1.54,-7.12 5.23,-13.53 7.19,-20.55c2.18,-6.81 4.71,-13.6 5.11,-20.8c0.9,-6.38 1.32,-12.8 1.44,-19.25c-0.1,-5.15 -0.18,-10.32 -1.52,-15.34c-0.53,-2.4 -0.99,-4.82 -1.3,-7.24c0.19,-0.23 1,-0.82 0.97,-1.21c-1.23,0.58 -2.78,1.12 -3.88,2.3c-2.17,1.8 -4.33,3.61 -6.19,5.76c-1.69,2.02 -3.76,3.92 -4.4,6.55c-0.52,2.17 -4.51,-0.55 -2.63,-1.75z" fill="#e0d3df" id="svg_29" stroke="#e0d3df"/>
   <path d="m378.82,179.9c1.08,-2.96 2.71,-5.76 4.02,-8.67c2.78,-6.13 5.13,-12.45 7.54,-18.73c2.12,-5.51 3.92,-11.14 6.13,-16.62c1.15,-3.7 2.51,-7.31 4.1,-10.83c1.26,-2.79 3.11,-4.76 5.52,-6.52c3.92,-2.02 6.55,-0.13 9.68,2.28c3.14,3.36 6.25,6.8 8.68,10.71c2.91,4.47 5.63,9.08 8.19,13.76c2.22,4.25 4.04,8.69 5.92,13.09c0.4,0.93 -0.92,1.48 -1.31,0.55c-1.87,-4.36 -3.67,-8.75 -5.87,-12.95c-2.51,-4.6 -5.38,-8.85 -9.31,-12.38c-3.26,-2.69 -6.03,-6.01 -9.65,-8.27c-1.01,-0.52 -2.04,-1.12 -3.07,-1.56c-1.3,1.24 -2.62,2.35 -3.39,4.05c-1.78,3.23 -3.58,6.49 -5.1,9.88c-2.28,5.43 -4.8,10.75 -6.96,16.23c-2.51,6.08 -5.25,12.23 -6.29,18.75c-0.47,2.9 -0.79,5.8 -0.97,8.7c-0.36,5.64 -9.79,3.84 -7.86,-1.47z" fill="#e0d3df" id="svg_30" stroke="#e0d3df"/>
   <path d="m332.63,161.37c1.74,-1.43 3.13,-3.19 4.58,-4.88c1.9,-2.98 3.69,-6.03 5.55,-9.04c0.51,-0.9 1.12,-1.74 1.68,-2.61c0.55,-0.85 1.74,-0.05 1.19,0.8c-0.55,0.85 -1.16,1.68 -1.66,2.56c-1.85,3 -3.73,5.99 -5.4,9.09c-0.75,2.05 -1.61,4.1 -1.98,6.28c-0.54,3.16 -6.43,-0.16 -3.96,-2.2z" fill="#e0d3df" id="svg_31" stroke="#e0d3df"/>
   <path d="m367.05,134.64c2.11,0.29 3.74,1.56 5.58,2.57c2.36,1.55 4.79,2.96 7.19,4.42c2.21,1.17 4.01,2.79 5.74,4.55c1.24,1.56 2.43,2.97 3.88,4.27c0.98,0.83 1.82,1.84 2.67,2.78c-0.27,0.47 -0.54,0.94 -0.8,1.41c-0.57,1 -0.18,0.55 -1.17,1.12c-0.47,0.27 -0.93,0.54 -1.39,0.81c-0.96,-0.92 -1.96,-1.86 -2.84,-2.88c-1.1,-1.61 -2.27,-3.07 -3.61,-4.53c-1.5,-1.46 -2.98,-2.97 -4.69,-4.21c-2.19,-1.63 -4.36,-3.23 -6.94,-4.22c-1.6,-0.87 -3.21,-1.6 -4.82,-2.36c-2.5,-1.19 -1.54,-4.11 1.2,-3.73z" fill="#e0d3df" id="svg_32" stroke="#e0d3df"/>
   <path d="m467.67,131.28c1.84,-1.04 3.34,-2.57 4.88,-3.98c2.87,-2.25 5.17,-5.08 7.62,-7.75c1.64,-2.12 3.46,-4.07 5.32,-5.98c2.1,-2 4.14,-2.02 6.83,-1.83c3.2,1.26 5.43,4.06 7.79,6.44c2.85,3.22 5.29,6.77 7.85,10.22c1.84,2.65 3.68,5.25 5.1,8.16c0.51,1.23 0.15,2.52 -0.03,3.79c-0.15,1 -0.51,1.08 -1.34,0.5c-0.94,-0.65 -1.96,-1.29 -2.61,-2.24c-1.55,-2.65 -2.76,-5.48 -4.38,-8.1c-2.07,-3.54 -4.25,-6.96 -7.15,-9.9c-1.85,-1.85 -3.54,-3.7 -6.2,-4.48c-1.15,0.08 -2.08,-0.48 -3.1,0.65c-1.97,1.59 -3.93,3.19 -5.79,4.92c-2.53,2.58 -5.19,5.05 -7.17,8.11c-1.27,1.69 -2.62,3.37 -3.58,5.27c-1.77,3.51 -7.46,-1.87 -4.04,-3.8z" fill="#e0d3df" id="svg_33" stroke="#e0d3df"/>
   <path d="m283.05,168.4c0.27,-2.08 0.5,-4.18 0.85,-6.25c0.48,-2.96 0.87,-5.91 1.1,-8.89c0.16,-2.5 1.13,-4.61 2.41,-6.71c2.43,-2.56 4.74,-2.31 7.86,-1.91c3.33,0.98 6.26,2.48 9.17,4.34c3.03,2.49 5.95,5.03 8.78,7.75c2.12,1.74 3.61,3.91 5.02,6.22c0.53,0.86 -0.33,1.58 -1.09,0.92c-1.99,-1.73 -3.84,-3.53 -5.44,-5.63c-2.64,-2.69 -5.2,-5.55 -8.43,-7.54c-2.57,-1.62 -4.96,-3.54 -8.15,-3.1c-1.42,0.52 -2.9,0.68 -3.97,1.85c-0.76,1.46 -1.85,2.76 -2.01,4.59c-0.77,2.79 -1.26,5.62 -1.5,8.52c-0.16,2.16 -0.48,4.3 -0.78,6.43c-0.39,2.7 -4.18,2.12 -3.82,-0.59z" fill="#e0d3df" id="svg_34" stroke="#e0d3df"/>
   <path d="m398.92,250.37c1.12,1.86 1.3,3.98 1.52,6.1c0.62,3.9 0.91,7.2 -0.9,10.79c0.09,0.72 0.17,1.44 0.26,2.16c0.12,1 -1.3,1.17 -1.42,0.17c-0.08,-0.72 -0.17,-1.43 -0.26,-2.15c-2.55,-2.97 -3.09,-6.16 -3.67,-9.96c-0.42,-2.18 -0.93,-4.34 -0.13,-6.47c1.15,-3.08 2.91,-3.46 4.6,-0.64z" fill="#e0d3df" id="svg_35" stroke="#e0d3df"/>
   <path d="m413.09,246.84c0.13,2.66 -0.23,5.8 -0.23,8.66c0.18,3.5 -0.68,6.78 -0.33,10.24c0.1,1.01 -1.3,1.16 -1.42,0.16c-0.43,-3.5 -1.96,-6.62 -2.2,-10.19c-0.3,-2.75 -0.84,-5.75 -1.23,-8.29c-0.59,-3.8 5.22,-4.42 5.41,-0.58z" fill="#e0d3df" id="svg_36" stroke="#e0d3df"/>
   <path d="m428.37,233.59c0.24,2.86 -0.36,5.61 -0.82,8.42c-0.17,5.43 -2.45,10.21 -3.97,15.3c-0.29,0.97 -1.22,0.93 -1.43,-0.06c-1.08,-5.2 -2.71,-10.17 -2.25,-15.58c-0.2,-2.44 -0.57,-4.88 -0.75,-7.31c-0.48,-6.52 8.66,-7.29 9.22,-0.77z" fill="#e0d3df" id="svg_37" stroke="#e0d3df"/>
   <path d="m438.49,246.92c-0.39,2.41 -0.95,4.84 -1.3,7.29c-0.34,2.87 -1.3,5.52 -1.81,8.35c-0.18,0.99 -1.42,0.89 -1.43,-0.12c-0.02,-2.92 -0.48,-5.73 -0.07,-8.65c0.25,-2.39 0.37,-4.77 0.39,-7.16c0.02,-2.99 4.7,-2.66 4.22,0.29z" fill="#e0d3df" id="svg_38" stroke="#e0d3df"/>
   <path d="m452.98,240.66c-0.66,3.43 -2.03,6.96 -3.02,10.39c-1.41,4.6 -3.55,8.67 -4.35,13.45c-0.16,0.99 -1.57,0.76 -1.41,-0.24c0.79,-4.72 0.23,-9.26 0.36,-14.03c0.05,-3.43 -0.32,-6.89 -0.6,-10.21c-0.55,-6.38 10.24,-5.64 9.02,0.64z" fill="#e0d3df" id="svg_39" stroke="#e0d3df"/>
   <path d="m475.86,418.37c1.84,2.42 3.97,4.65 6.03,6.91c5.1,3.38 10.2,7.24 14.52,11.65c5.18,5.46 10.28,10.94 15.45,16.43c4.15,4.48 9.51,7.62 14.48,11.15c5.01,2.91 10.35,4.61 15.87,6.19c7.55,1.72 15.35,1.86 23.06,1.88c11.04,-0.32 22.05,-1.33 32.93,-3.25c12.65,-2.12 24.85,-6.1 36.83,-10.58c9.97,-3.87 19.67,-8.4 29.2,-13.23c5.1,-2.79 10.3,-5.41 15.41,-8.18c2.95,-1.62 5.8,-2.74 9.08,-3.18c2.03,1.02 4.2,1.61 6.24,2.4c1.33,0.52 1.22,0.4 0.93,1.8c-0.45,2.16 -1.05,4.36 -1.55,6.58c-2.82,2.61 -5.75,4.28 -9.61,5.19c-5.55,1.55 -11.03,3.37 -16.58,4.96c-10.31,3.27 -20.44,7.02 -30.61,10.68c-12.46,4.25 -25,8.24 -37.82,11.29c-11.23,2.44 -22.5,4.82 -34,5.63c-8.79,0.79 -17.65,1.36 -26.41,-0.2c-6.97,-1.5 -13.92,-4.06 -19.55,-8.54c-5.64,-4.21 -10.67,-8.62 -15.02,-14.21c-4.85,-5.69 -9.39,-11.61 -14.24,-17.28c-4.05,-4.52 -7.68,-9.45 -11.55,-14.06c-2.44,-2.06 -4.85,-4.17 -7.29,-6.2c-3.08,-2.58 1.77,-7.03 4.2,-3.83z" fill="#e0d3df" id="svg_40" stroke="#e0d3df"/>
   <path d="m554.62,375.05c5.6,0.68 11.16,-0.07 16.69,-0.96c13.58,-1.65 26.56,-6.18 39.41,-10.67c14.38,-4.96 28.46,-10.74 42.28,-17.08c9.26,-4.78 17.89,-10.61 26.43,-16.55c5.44,-3.8 10.92,-7.53 16.17,-11.59c3.85,-2.91 7.26,-6.27 10.52,-9.79c1.85,-1.89 3.27,-3.96 4.61,-6.2c0.15,-0.54 0.03,-1.12 0.04,-1.68c0.71,0.12 -3.76,-1.39 -4.51,-1.61c-7.75,-1.37 -15.7,-1.07 -23.52,-0.58c-10.78,0.48 -21.47,2.11 -32.14,3.61c-10.34,1.68 -20.69,3.28 -31.01,5.07c-1.4,0.24 -1.75,-1.75 -0.34,-1.99c10.34,-1.79 20.71,-3.4 31.07,-5.08c10.72,-1.5 21.46,-2.77 32.2,-4.09c8.14,-0.91 16.21,-2.28 24.36,-3.09c4.74,0.19 9.2,-0.09 12.13,4.22c0.6,3.16 0.92,5.65 -0.87,8.56c-1.63,3.15 -3.17,6.46 -5.8,8.93c-3.89,3.5 -7.89,6.94 -12.27,9.87c-5.74,3.72 -11.33,7.68 -17.49,10.7c-9.38,4.8 -19.01,9.08 -28.74,13.12c-13.88,6.37 -28.01,12.17 -42.46,17.15c-12.98,4.54 -25.96,9.1 -38.79,14.07c-5.84,1.9 -11.51,4.21 -17.32,6.14c-7.04,2.34 -8.02,-11.37 -0.65,-10.48z" fill="#e0d3df" id="svg_41" stroke="#e0d3df"/>
   <path d="m449.22,424.28c-2.91,-0.49 -5.58,0.5 -8.33,1.28c-4.52,3.59 -3.83,0.3 -5.12,0.17c2.83,1.19 5.97,0.67 8.98,0.5c4.08,-0.99 5.31,-1.49 8.71,0.03c-0.33,2.84 -2.07,5.11 -3.33,7.69c2.85,4.18 2.25,9.57 3.1,15.01c0.45,6.71 1.86,13.08 0.77,19.79c-2.03,12.82 -3.34,25.73 -4.72,38.64c-1.33,20.26 -3.09,40.52 -3.75,60.81c-0.78,19.96 -0.69,39.94 -1.49,59.89c0.68,9.52 -1.76,18.7 -2.83,28.06c-0.16,1.42 -1.89,1.4 -2.02,-0.02c-0.82,-9.42 -2.92,-18.7 -1.68,-28.22c0.28,-19.97 1.56,-39.91 1.87,-59.88c0.52,-20.33 0.17,-40.67 0.12,-61c-0.44,-13.15 -0.86,-26.33 -1.14,-39.48c-0.03,-6.68 2.53,-12.33 3.79,-18.8c0.46,-6.13 1.03,-11.06 4.55,-15.64c0.23,-1.03 1.46,-8.38 1.85,-5c-1.22,0.04 -2.44,0.21 -3.66,0.14c-3.96,0.22 -8.11,0.86 -11.85,-0.7c-2.89,-5.36 2.02,-5.45 6.17,-7.07c2.96,-1.03 6,-1.98 8.83,-3.34c4.62,-2.22 6.23,7.99 1.18,7.14z" fill="#e0d3df" id="svg_42" stroke="#e0d3df"/>
  </g>
 </g>
</svg>